<svg preserveAspectRatio="none" width="100%" height="100%" overflow="visible" style="display: block;" viewBox="0 0 24.2372 20.3691" fill="none" xmlns="http://www.w3.org/2000/svg">
<g id="Icon">
<path id="Vector" d="M23.2442 6.61938L13.6634 10.588C13.1269 10.8103 12.7765 11.334 12.7765 11.9152V19.65C12.7765 20.1617 13.2968 20.5093 13.7696 20.3139L23.3504 16.3453C23.8869 16.123 24.2372 15.5993 24.2372 15.0182V7.28401C24.2372 6.77227 23.717 6.42474 23.2442 6.62009V6.61938Z" fill="var(--fill-0, #161616)"/>
<path id="Vector_2" d="M0 7.28259V13.7477C0 14.2594 0.520234 14.6069 0.993045 14.4116L10.399 10.5151L0.993045 6.61938C0.520234 6.42332 0 6.77085 0 7.2833V7.28259Z" fill="var(--fill-0, #161616)"/>
<path id="Vector_3" d="M1.6046 5.44796L11.0191 9.34724C11.7233 9.63885 12.5139 9.63885 13.2182 9.34724L22.6348 5.44655C23.2265 5.20165 23.2265 4.36361 22.6348 4.11871L13.2182 0.218726C12.5139 -0.0728886 11.7233 -0.0728886 11.0191 0.218726L1.6046 4.118C1.01217 4.36361 1.01217 5.20236 1.6046 5.44725V5.44796Z" fill="var(--fill-0, #161616)"/>
</g>
</svg>
