<svg preserveAspectRatio="none" width="100%" height="100%" overflow="visible" style="display: block;" viewBox="0 0 78.8459 17.0269" fill="none" xmlns="http://www.w3.org/2000/svg">
<g id="Logotype">
<path id="Vector" d="M9.16815 0.230028H6.38791L0.551378 15.3267L0 16.7055V16.7975H2.96427L3.01028 16.7055L3.53901 15.3267L4.43084 12.9598H11.1309L12.0178 15.3267L12.5231 16.7055L12.5691 16.7975H15.5794V16.7055L15.028 15.3267L9.16886 0.230028H9.16815ZM5.37363 10.4549L7.78935 4.04437L10.1916 10.4549H5.37363Z" fill="var(--fill-0, #161616)"/>
<path id="Vector_2" d="M16.5144 4.98644V6.80125V15.3034V16.6822V16.7968H19.2027V16.6822V15.3034V4.87107H16.5144V4.98644Z" fill="var(--fill-0, #161616)"/>
<path id="Vector_3" d="M25.4292 5.00911C24.9238 5.25401 24.4793 5.59871 24.0964 6.04321C23.9194 6.24847 23.768 6.4686 23.637 6.69934V4.87109H20.9488V16.7968H23.637V9.94532C23.7574 9.52488 23.9329 9.12002 24.1658 8.73144C24.4871 8.19563 24.9472 7.77803 25.5446 7.47934C26.1419 7.18064 26.8773 7.10845 27.7508 7.26133V4.68777C27.6127 4.65733 27.3678 4.64176 27.0154 4.64176C26.464 4.64176 25.9353 4.76492 25.4299 5.00982L25.4292 5.00911Z" fill="var(--fill-0, #161616)"/>
<path id="Vector_4" d="M33.5172 2.06821H30.967C30.9819 2.97207 30.9437 3.60413 30.8524 3.9637C30.7603 4.32397 30.5728 4.56533 30.2896 4.68778C30.0058 4.81094 29.5047 4.87181 28.7849 4.87181V7.12332H30.8297V13.1665C30.8297 14.4229 31.1702 15.3805 31.8525 16.0388C32.5341 16.6978 33.4415 17.0269 34.5754 17.0269C34.9279 17.0269 35.2761 16.9887 35.6208 16.9122C35.9655 16.8358 36.2139 16.7438 36.3675 16.6369V14.3854C36.1531 14.5078 35.9499 14.592 35.7588 14.6381C35.567 14.6841 35.3639 14.7067 35.1501 14.7067C34.6596 14.7067 34.2654 14.5651 33.9667 14.2813C33.668 13.9982 33.5186 13.5502 33.5186 12.9372V7.12403H36.4596V4.87252H33.5186V2.06891L33.5172 2.06821Z" fill="var(--fill-0, #161616)"/>
<path id="Vector_5" d="M45.6263 5.16977C44.8682 4.81728 43.9983 4.64104 43.018 4.64104C42.0377 4.64104 41.2372 4.80171 40.5252 5.12376C39.8131 5.44581 39.2348 5.86695 38.7903 6.38719C38.3458 6.90813 38.0323 7.49844 37.8483 8.15669L40.3072 8.80008C40.3992 8.37116 40.5598 8.00381 40.7899 7.69733C41.0199 7.39085 41.3221 7.14949 41.6973 6.97325C42.0724 6.79701 42.5134 6.70924 43.0187 6.70924C43.4632 6.70924 43.861 6.79347 44.2135 6.96192C44.566 7.13038 44.8413 7.38306 45.0409 7.71998C45.2398 8.05689 45.3396 8.45538 45.3396 8.91475V9.3281L41.87 9.83347C40.981 9.9715 40.2272 10.1973 39.6064 10.5115C38.9857 10.8258 38.5108 11.2392 38.1816 11.7523C37.8518 12.2655 37.6876 12.8664 37.6876 13.5558C37.6876 14.2452 37.8674 14.8079 38.2276 15.3366C38.5872 15.8654 39.0812 16.2787 39.7098 16.5774C40.3376 16.8761 41.0503 17.0254 41.8466 17.0254C42.7965 17.0254 43.6536 16.7536 44.4202 16.2101C44.7769 15.9567 45.082 15.6325 45.3396 15.2446V16.7961H48.0052V9.07542C48.0052 8.17156 47.7985 7.38306 47.3852 6.70853C46.9718 6.0347 46.3858 5.52155 45.6277 5.16906L45.6263 5.16977ZM45.0289 13.3619C44.7607 13.8446 44.3933 14.2431 43.9261 14.5566C43.459 14.8709 42.9189 15.028 42.306 15.028C41.739 15.028 41.2832 14.8787 40.9385 14.58C40.5938 14.2813 40.4211 13.9019 40.4211 13.4426C40.4211 12.9832 40.5782 12.5889 40.8925 12.3051C41.2061 12.022 41.6775 11.8337 42.3053 11.7424L45.3382 11.2137V12.6611C45.2575 12.899 45.1549 13.1332 45.0282 13.3626L45.0289 13.3619Z" fill="var(--fill-0, #161616)"/>
<path id="Vector_6" d="M58.9414 5.4345C58.0992 4.90577 57.1493 4.64176 56.0925 4.64176C55.3111 4.64176 54.5878 4.80668 53.921 5.13581C53.255 5.46564 52.7609 5.88254 52.4389 6.38791V0H49.7506V16.7968H52.4389V15.2574C52.7602 15.7627 53.255 16.1846 53.921 16.5208C54.5878 16.8577 55.2956 17.0262 56.0465 17.0262C57.1033 17.0262 58.0609 16.7586 58.9188 16.2221C59.7767 15.6863 60.4469 14.9466 60.9297 14.0046C61.4124 13.0625 61.6537 12.0022 61.6537 10.8223C61.6537 9.64238 61.4124 8.58209 60.9297 7.64001C60.4469 6.69793 59.7844 5.96252 58.9422 5.4345H58.9414ZM58.4934 12.8218C58.2096 13.4192 57.8118 13.8828 57.2986 14.2119C56.7855 14.5418 56.2072 14.706 55.5638 14.706C55.0124 14.706 54.5071 14.5722 54.047 14.304C53.5876 14.0364 53.216 13.6606 52.9329 13.1778C52.6491 12.6951 52.4849 12.1551 52.4389 11.5577V10.0409C52.4849 9.44349 52.6491 8.91122 52.9329 8.44407C53.216 7.97692 53.5912 7.61311 54.059 7.35264C54.5262 7.09217 55.0584 6.96193 55.6558 6.96193C56.2532 6.96193 56.8237 7.12261 57.322 7.44466C57.8196 7.766 58.2103 8.21828 58.4941 8.8001C58.7772 9.38262 58.9195 10.0487 58.9195 10.7989C58.9195 11.5492 58.778 12.2237 58.4941 12.8211L58.4934 12.8218Z" fill="var(--fill-0, #161616)"/>
<path id="Vector_7" d="M63.1691 0.0920143V1.93017V15.326V16.7048V16.7968H65.8581V16.7048V15.326V0H63.1691V0.0920143Z" fill="var(--fill-0, #161616)"/>
<path id="Vector_8" d="M78.5299 8.26075C78.2312 7.24222 77.6451 6.38437 76.7717 5.68718C75.8983 4.99 74.7035 4.64176 73.1874 4.64176C72.0691 4.64176 71.0654 4.90577 70.1771 5.4345C69.2881 5.96323 68.5994 6.69792 68.1089 7.64001C67.6184 8.58209 67.3735 9.64309 67.3735 10.8223C67.3735 12.0015 67.6262 13.0858 68.1315 14.0279C68.6369 14.97 69.3412 15.7054 70.2458 16.2334C71.1496 16.7622 72.1681 17.0262 73.302 17.0262C74.7573 17.0262 75.9563 16.7126 76.8977 16.0841C77.8398 15.4563 78.4718 14.5984 78.7932 13.5105L76.1736 12.7985C75.974 13.4574 75.6449 13.9515 75.1855 14.2806C74.7261 14.6104 74.121 14.7746 73.37 14.7746C72.6806 14.7746 72.0832 14.614 71.5778 14.2919C71.0725 13.9706 70.6818 13.507 70.4057 12.9018C70.1948 12.4382 70.066 11.913 70.0164 11.3277H78.7925C78.9149 10.3013 78.8271 9.27928 78.5284 8.26004L78.5299 8.26075ZM70.1297 9.39819C70.1884 9.11294 70.262 8.84185 70.3611 8.59412C70.606 7.98188 70.9698 7.51048 71.4526 7.18064C71.9353 6.85152 72.5128 6.6866 73.1874 6.6866C73.7388 6.6866 74.2172 6.80126 74.6235 7.0313C75.0291 7.26133 75.3511 7.58268 75.5882 7.99603C75.8254 8.40939 75.9676 8.87724 76.0136 9.39748H70.129L70.1297 9.39819Z" fill="var(--fill-0, #161616)"/>
<path id="Vector_9" d="M19.3676 0.0927405H16.3495V3.11081H19.3676V0.0927405Z" fill="var(--fill-0, #161616)"/>
</g>
</svg>
