<svg width="160" height="22" viewBox="0 0 160 22" fill="none" xmlns="http://www.w3.org/2000/svg">
<path d="M0 17.5996H4.40032V21.9998H0V17.5996Z" fill="#161616"/>
<rect x="97.8984" y="17.5996" width="4.40032" height="4.40018" fill="#161616"/>
<path d="M4.40234 0H8.80266V4.40018H4.40234V0Z" fill="#161616"/>
<rect x="102.305" width="4.40032" height="4.40018" fill="#161616"/>
<rect x="124.301" width="4.40032" height="4.40018" fill="#161616"/>
<rect x="124.301" y="17.5996" width="4.40032" height="4.40018" fill="#161616"/>
<path d="M8.79688 0H13.1972V4.40018H8.79688V0Z" fill="#161616"/>
<rect x="106.695" width="4.40032" height="4.40018" fill="#161616"/>
<rect x="128.695" width="4.40032" height="4.40018" fill="#161616"/>
<rect x="128.695" y="17.5996" width="4.40032" height="4.40018" fill="#161616"/>
<rect y="13.1992" width="4.40032" height="4.40018" fill="#161616"/>
<rect x="97.8984" y="13.1992" width="4.40032" height="4.40018" fill="#161616"/>
<rect x="119.895" y="13.1992" width="4.40032" height="4.40018" fill="#161616"/>
<rect x="141.895" y="13.1992" width="4.40032" height="4.40018" fill="#161616"/>
<rect y="8.7998" width="4.40032" height="4.40018" fill="#161616"/>
<rect x="97.8984" y="8.7998" width="4.40032" height="4.40018" fill="#161616"/>
<rect x="119.895" y="8.7998" width="4.40032" height="4.40018" fill="#161616"/>
<rect x="141.895" y="8.7998" width="4.40032" height="4.40018" fill="#161616"/>
<rect x="146.297" y="8.7998" width="4.40032" height="4.40018" fill="#161616"/>
<rect x="150.703" y="8.7998" width="4.40032" height="4.40018" fill="#161616"/>
<rect x="4.40234" y="13.2441" width="4.40032" height="4.40018" fill="#161616"/>
<rect x="102.305" y="8.7998" width="4.40032" height="4.40018" fill="#161616"/>
<rect x="36.3008" y="8.7998" width="4.40032" height="4.40018" fill="#161616"/>
<rect x="80.3008" y="8.7998" width="4.40032" height="4.40018" fill="#161616"/>
<rect x="58.2969" y="9.53223" width="4.40032" height="2.93345" fill="#161616"/>
<rect x="62.6992" y="9.53223" width="4.40032" height="2.93345" fill="#161616"/>
<rect x="53.9023" y="14.665" width="4.40032" height="2.93345" fill="#161616"/>
<rect x="67.1016" y="4.39941" width="4.40032" height="2.93345" fill="#161616"/>
<rect x="8.79688" y="13.2441" width="4.40032" height="4.40018" fill="#161616"/>
<rect x="106.695" y="8.7998" width="4.40032" height="4.40018" fill="#161616"/>
<rect x="40.6992" y="8.7998" width="4.40032" height="4.40018" fill="#161616"/>
<rect x="84.6992" y="8.7998" width="4.40032" height="4.40018" fill="#161616"/>
<rect x="13.1992" y="8.7998" width="4.40032" height="4.40018" fill="#161616"/>
<rect x="111.098" y="8.7998" width="4.40032" height="4.40018" fill="#161616"/>
<rect x="13.1992" y="13.1992" width="4.40032" height="4.40018" fill="#161616"/>
<rect x="111.098" y="13.1992" width="4.40032" height="4.40018" fill="#161616"/>
<path d="M13.1992 17.5996H17.5995V21.9998H13.1992V17.5996Z" fill="#161616"/>
<rect x="111.098" y="17.5996" width="4.40032" height="4.40018" fill="#161616"/>
<rect x="22.7305" y="17.5996" width="4.40032" height="4.40018" fill="#161616"/>
<rect x="31.9023" y="17.5996" width="4.40032" height="4.40018" fill="#161616"/>
<rect x="75.9023" y="17.5996" width="4.40032" height="4.40018" fill="#161616"/>
<rect x="58.2969" y="17.5996" width="4.40032" height="4.40018" fill="#161616"/>
<rect x="62.6992" y="17.5996" width="4.40032" height="4.40018" fill="#161616"/>
<rect x="22.7305" y="13.1992" width="4.40032" height="4.40018" fill="#161616"/>
<rect x="31.9023" y="13.1992" width="4.40032" height="4.40018" fill="#161616"/>
<rect x="75.9023" y="13.1992" width="4.40032" height="4.40018" fill="#161616"/>
<rect x="22.7305" y="8.7998" width="4.40032" height="4.40018" fill="#161616"/>
<rect x="31.9023" y="8.7998" width="4.40032" height="4.40018" fill="#161616"/>
<rect x="75.9023" y="8.7998" width="4.40032" height="4.40018" fill="#161616"/>
<rect x="22.7305" y="4.39941" width="4.40032" height="4.40018" fill="#161616"/>
<rect x="31.9023" y="4.39941" width="4.40032" height="4.40018" fill="#161616"/>
<rect x="75.9023" y="4.39941" width="4.40032" height="4.40018" fill="#161616"/>
<rect x="53.9023" y="4.39941" width="4.40032" height="4.40018" fill="#161616"/>
<rect x="22.7305" width="4.40032" height="4.40018" fill="#161616"/>
<rect x="31.9023" width="4.40032" height="4.40018" fill="#161616"/>
<rect x="75.9023" width="4.40032" height="4.40018" fill="#161616"/>
<rect x="36.3008" width="4.40032" height="4.40018" fill="#161616"/>
<rect x="80.3008" width="4.40032" height="4.40018" fill="#161616"/>
<rect x="58.2969" width="4.40032" height="4.40018" fill="#161616"/>
<rect x="40.6992" width="4.40032" height="4.40018" fill="#161616"/>
<rect x="84.6992" width="4.40032" height="4.40018" fill="#161616"/>
<rect x="62.6992" width="4.40032" height="4.40018" fill="#161616"/>
<rect x="45.0977" y="4.39941" width="4.40032" height="4.40018" fill="#161616"/>
<rect x="89.1016" y="4.39941" width="4.40032" height="4.40018" fill="#161616"/>
<rect x="45.0977" y="17.5996" width="4.40032" height="4.40018" fill="#161616"/>
<path d="M0 4.39941H4.40032V8.79959H0V4.39941Z" fill="#161616"/>
<rect x="97.8984" y="4.39941" width="4.40032" height="4.40018" fill="#161616"/>
<rect x="119.895" y="4.39941" width="4.40032" height="4.40018" fill="#161616"/>
<rect x="141.895" y="4.39941" width="4.40032" height="4.40018" fill="#161616"/>
<rect x="144.102" y="2.2002" width="2.20016" height="2.20009" fill="#161616"/>
<rect x="144.102" y="17.5996" width="2.20016" height="2.20009" fill="#161616"/>
<rect x="146.297" y="17.5996" width="4.40032" height="4.40018" fill="#161616"/>
<rect x="146.297" width="4.40032" height="4.40018" fill="#161616"/>
<rect x="150.703" y="17.5996" width="4.40032" height="4.40018" fill="#161616"/>
<rect x="150.703" width="4.40032" height="4.40018" fill="#161616"/>
<rect x="155.098" y="17.5996" width="4.40032" height="4.40018" fill="#161616"/>
<rect x="155.098" width="4.40032" height="4.40018" fill="#161616"/>
<path d="M2.19922 2.2002H4.39938V4.40029H2.19922V2.2002Z" fill="#161616"/>
<rect x="100.098" y="2.2002" width="2.20016" height="2.20009" fill="#161616"/>
<rect x="122.102" y="2.2002" width="2.20016" height="2.20009" fill="#161616"/>
<rect x="122.102" y="17.5996" width="2.20016" height="2.20009" fill="#161616"/>
<path d="M13.1992 2.2002H15.3994V4.40029H13.1992V2.2002Z" fill="#161616"/>
<rect x="111.098" y="2.2002" width="2.20016" height="2.20009" fill="#161616"/>
<rect x="133.102" y="2.2002" width="2.20016" height="2.20009" fill="#161616"/>
<rect x="133.102" y="17.5996" width="2.20016" height="2.20009" fill="#161616"/>
<rect x="45.0977" y="2.2002" width="2.20016" height="2.20009" fill="#161616"/>
<rect x="89.1016" y="2.2002" width="2.20016" height="2.20009" fill="#161616"/>
<rect x="67.1016" y="2.2002" width="2.20016" height="2.20009" fill="#161616"/>
<rect x="56.1016" y="2.2002" width="2.20016" height="2.20009" fill="#161616"/>
<rect x="56.1016" y="8.7998" width="2.20016" height="2.20009" fill="#161616"/>
<rect x="67.1016" y="10.999" width="2.20016" height="2.20009" fill="#161616"/>
<rect x="56.1016" y="17.5996" width="2.20016" height="2.20009" fill="#161616"/>
<rect x="45.0977" y="8.7998" width="2.20016" height="2.20009" fill="#161616"/>
<rect x="89.1016" y="8.7998" width="2.20016" height="2.20009" fill="#161616"/>
<rect x="67.1016" y="17.5996" width="2.20016" height="2.20009" fill="#161616"/>
<rect x="45.0977" y="13.1992" width="4.40032" height="4.40018" fill="#161616"/>
<rect x="67.1016" y="13.1992" width="4.40032" height="4.40018" fill="#161616"/>
<path d="M13.1992 4.39941H17.5995V8.79959H13.1992V4.39941Z" fill="#161616"/>
<rect x="111.098" y="4.39941" width="4.40032" height="4.40018" fill="#161616"/>
<rect x="133.102" y="4.39941" width="4.40032" height="4.40018" fill="#161616"/>
<rect x="133.102" y="13.1992" width="4.40032" height="4.40018" fill="#161616"/>
</svg>
