<svg width="96" height="96" viewBox="0 0 96 96" fill="none" xmlns="http://www.w3.org/2000/svg">
<path d="M0 10.5906H2.64776V13.2384H0V10.5906Z" fill="#DD04A8"/>
<rect x="58.9092" y="10.5906" width="2.64776" height="2.64776" fill="#DD04A8"/>
<path d="M2.64765 0H5.29541V2.64776H2.64765V0Z" fill="#DD04A8"/>
<rect x="61.5588" width="2.64776" height="2.64776" fill="#DD04A8"/>
<rect x="74.7951" width="2.64776" height="2.64776" fill="#DD04A8"/>
<rect x="74.7951" y="10.5906" width="2.64776" height="2.64776" fill="#DD04A8"/>
<path d="M5.29727 0H7.94504V2.64776H5.29727V0Z" fill="#DD04A8"/>
<rect x="64.2045" width="2.64776" height="2.64776" fill="#DD04A8"/>
<rect x="77.4428" width="2.64776" height="2.64776" fill="#DD04A8"/>
<rect x="77.4428" y="10.5906" width="2.64776" height="2.64776" fill="#DD04A8"/>
<rect y="7.94295" width="2.64776" height="2.64776" fill="#DD04A8"/>
<rect x="58.9092" y="7.94295" width="2.64776" height="2.64776" fill="#DD04A8"/>
<rect x="72.1475" y="7.94295" width="2.64776" height="2.64776" fill="#DD04A8"/>
<rect x="85.3857" y="7.94295" width="2.64776" height="2.64776" fill="#DD04A8"/>
<rect y="5.2953" width="2.64776" height="2.64776" fill="#DD04A8"/>
<rect x="58.9092" y="5.2953" width="2.64776" height="2.64776" fill="#DD04A8"/>
<rect x="72.1475" y="5.2953" width="2.64776" height="2.64776" fill="#DD04A8"/>
<rect x="85.3857" y="5.2953" width="2.64776" height="2.64776" fill="#DD04A8"/>
<rect x="88.0334" y="5.2953" width="2.64776" height="2.64776" fill="#DD04A8"/>
<rect x="90.681" y="5.2953" width="2.64776" height="2.64776" fill="#DD04A8"/>
<rect x="2.64765" y="7.96958" width="2.64776" height="2.64776" fill="#DD04A8"/>
<rect x="61.5588" y="5.2953" width="2.64776" height="2.64776" fill="#DD04A8"/>
<rect x="21.8441" y="5.2953" width="2.64776" height="2.64776" fill="#DD04A8"/>
<rect x="48.3186" y="5.2953" width="2.64776" height="2.64776" fill="#DD04A8"/>
<rect x="35.0804" y="5.73625" width="2.64776" height="1.76518" fill="#DD04A8"/>
<rect x="37.728" y="5.73625" width="2.64776" height="1.76518" fill="#DD04A8"/>
<rect x="32.4327" y="8.82583" width="2.64776" height="1.76518" fill="#DD04A8"/>
<rect x="40.3757" y="2.64765" width="2.64776" height="1.76518" fill="#DD04A8"/>
<rect x="5.29727" y="7.96958" width="2.64776" height="2.64776" fill="#DD04A8"/>
<rect x="64.2045" y="5.2953" width="2.64776" height="2.64776" fill="#DD04A8"/>
<rect x="24.4898" y="5.2953" width="2.64776" height="2.64776" fill="#DD04A8"/>
<rect x="50.9682" y="5.2953" width="2.64776" height="2.64776" fill="#DD04A8"/>
<rect x="7.94492" y="5.2953" width="2.64776" height="2.64776" fill="#DD04A8"/>
<rect x="66.8522" y="5.2953" width="2.64776" height="2.64776" fill="#DD04A8"/>
<rect x="7.94492" y="7.94295" width="2.64776" height="2.64776" fill="#DD04A8"/>
<rect x="66.8522" y="7.94295" width="2.64776" height="2.64776" fill="#DD04A8"/>
<path d="M7.94492 10.5906H10.5927V13.2384H7.94492V10.5906Z" fill="#DD04A8"/>
<rect x="66.8522" y="10.5906" width="2.64776" height="2.64776" fill="#DD04A8"/>
<rect x="13.6782" y="10.5906" width="2.64776" height="2.64776" fill="#DD04A8"/>
<rect x="19.1964" y="10.5906" width="2.64776" height="2.64776" fill="#DD04A8"/>
<rect x="45.6729" y="10.5906" width="2.64776" height="2.64776" fill="#DD04A8"/>
<rect x="35.0804" y="10.5906" width="2.64776" height="2.64776" fill="#DD04A8"/>
<rect x="37.728" y="10.5906" width="2.64776" height="2.64776" fill="#DD04A8"/>
<rect x="13.6782" y="7.94295" width="2.64776" height="2.64776" fill="#DD04A8"/>
<rect x="19.1964" y="7.94295" width="2.64776" height="2.64776" fill="#DD04A8"/>
<rect x="45.6729" y="7.94295" width="2.64776" height="2.64776" fill="#DD04A8"/>
<rect x="13.6782" y="5.2953" width="2.64776" height="2.64776" fill="#DD04A8"/>
<rect x="19.1964" y="5.2953" width="2.64776" height="2.64776" fill="#DD04A8"/>
<rect x="45.6729" y="5.2953" width="2.64776" height="2.64776" fill="#DD04A8"/>
<rect x="13.6782" y="2.64765" width="2.64776" height="2.64776" fill="#DD04A8"/>
<rect x="19.1964" y="2.64765" width="2.64776" height="2.64776" fill="#DD04A8"/>
<rect x="45.6729" y="2.64765" width="2.64776" height="2.64776" fill="#DD04A8"/>
<rect x="32.4327" y="2.64765" width="2.64776" height="2.64776" fill="#DD04A8"/>
<rect x="13.6782" width="2.64776" height="2.64776" fill="#DD04A8"/>
<rect x="19.1964" width="2.64776" height="2.64776" fill="#DD04A8"/>
<rect x="45.6729" width="2.64776" height="2.64776" fill="#DD04A8"/>
<rect x="21.8441" width="2.64776" height="2.64776" fill="#DD04A8"/>
<rect x="48.3186" width="2.64776" height="2.64776" fill="#DD04A8"/>
<rect x="35.0804" width="2.64776" height="2.64776" fill="#DD04A8"/>
<rect x="24.4898" width="2.64776" height="2.64776" fill="#DD04A8"/>
<rect x="50.9682" width="2.64776" height="2.64776" fill="#DD04A8"/>
<rect x="37.728" width="2.64776" height="2.64776" fill="#DD04A8"/>
<rect x="27.1394" y="2.64765" width="2.64776" height="2.64776" fill="#DD04A8"/>
<rect x="53.612" y="2.64765" width="2.64776" height="2.64776" fill="#DD04A8"/>
<rect x="27.1394" y="10.5906" width="2.64776" height="2.64776" fill="#DD04A8"/>
<path d="M0 2.64765H2.64776V5.29541H0V2.64765Z" fill="#DD04A8"/>
<rect x="58.9092" y="2.64765" width="2.64776" height="2.64776" fill="#DD04A8"/>
<rect x="72.1475" y="2.64765" width="2.64776" height="2.64776" fill="#DD04A8"/>
<rect x="85.3857" y="2.64765" width="2.64776" height="2.64776" fill="#DD04A8"/>
<rect x="86.7096" y="1.32382" width="1.32388" height="1.32388" fill="#DD04A8"/>
<rect x="86.7096" y="10.5906" width="1.32388" height="1.32388" fill="#DD04A8"/>
<rect x="88.0334" y="10.5906" width="2.64776" height="2.64776" fill="#DD04A8"/>
<rect x="88.0334" width="2.64776" height="2.64776" fill="#DD04A8"/>
<rect x="90.681" y="10.5906" width="2.64776" height="2.64776" fill="#DD04A8"/>
<rect x="90.681" width="2.64776" height="2.64776" fill="#DD04A8"/>
<rect x="93.3287" y="10.5906" width="2.64776" height="2.64776" fill="#DD04A8"/>
<rect x="93.3287" width="2.64776" height="2.64776" fill="#DD04A8"/>
<path d="M1.32382 1.32382H2.64771V2.64771H1.32382V1.32382Z" fill="#DD04A8"/>
<rect x="60.235" y="1.32382" width="1.32388" height="1.32388" fill="#DD04A8"/>
<rect x="73.4713" y="1.32382" width="1.32388" height="1.32388" fill="#DD04A8"/>
<rect x="73.4713" y="10.5906" width="1.32388" height="1.32388" fill="#DD04A8"/>
<path d="M7.94492 1.32382H9.2688V2.64771H7.94492V1.32382Z" fill="#DD04A8"/>
<rect x="66.8522" y="1.32382" width="1.32388" height="1.32388" fill="#DD04A8"/>
<rect x="80.0904" y="1.32382" width="1.32388" height="1.32388" fill="#DD04A8"/>
<rect x="80.0904" y="10.5906" width="1.32388" height="1.32388" fill="#DD04A8"/>
<rect x="27.1394" y="1.32382" width="1.32388" height="1.32388" fill="#DD04A8"/>
<rect x="53.612" y="1.32382" width="1.32388" height="1.32388" fill="#DD04A8"/>
<rect x="40.3757" y="1.32382" width="1.32388" height="1.32388" fill="#DD04A8"/>
<rect x="33.7585" y="1.32382" width="1.32388" height="1.32388" fill="#DD04A8"/>
<rect x="33.7585" y="5.2953" width="1.32388" height="1.32388" fill="#DD04A8"/>
<rect x="40.3757" y="6.61912" width="1.32388" height="1.32388" fill="#DD04A8"/>
<rect x="33.7585" y="10.5906" width="1.32388" height="1.32388" fill="#DD04A8"/>
<rect x="27.1394" y="5.2953" width="1.32388" height="1.32388" fill="#DD04A8"/>
<rect x="53.612" y="5.2953" width="1.32388" height="1.32388" fill="#DD04A8"/>
<rect x="40.3757" y="10.5906" width="1.32388" height="1.32388" fill="#DD04A8"/>
<rect x="27.1394" y="7.94295" width="2.64776" height="2.64776" fill="#DD04A8"/>
<rect x="40.3757" y="7.94295" width="2.64776" height="2.64776" fill="#DD04A8"/>
<path d="M7.94492 2.64765H10.5927V5.29541H7.94492V2.64765Z" fill="#DD04A8"/>
<rect x="66.8522" y="2.64765" width="2.64776" height="2.64776" fill="#DD04A8"/>
<rect x="80.0904" y="2.64765" width="2.64776" height="2.64776" fill="#DD04A8"/>
<rect x="80.0904" y="7.94295" width="2.64776" height="2.64776" fill="#DD04A8"/>
<path d="M0 31.2815H2.64776V33.9293H0V31.2815Z" fill="#DD04A8"/>
<rect x="58.9092" y="31.2815" width="2.64776" height="2.64776" fill="#DD04A8"/>
<path d="M2.64765 20.6909H5.29541V23.3387H2.64765V20.6909Z" fill="#DD04A8"/>
<rect x="61.5588" y="20.6909" width="2.64776" height="2.64776" fill="#DD04A8"/>
<rect x="74.7951" y="20.6909" width="2.64776" height="2.64776" fill="#DD04A8"/>
<rect x="74.7951" y="31.2815" width="2.64776" height="2.64776" fill="#DD04A8"/>
<path d="M5.29727 20.6909H7.94504V23.3387H5.29727V20.6909Z" fill="#DD04A8"/>
<rect x="64.2045" y="20.6909" width="2.64776" height="2.64776" fill="#DD04A8"/>
<rect x="77.4428" y="20.6909" width="2.64776" height="2.64776" fill="#DD04A8"/>
<rect x="77.4428" y="31.2815" width="2.64776" height="2.64776" fill="#DD04A8"/>
<rect y="28.6339" width="2.64776" height="2.64776" fill="#DD04A8"/>
<rect x="58.9092" y="28.6339" width="2.64776" height="2.64776" fill="#DD04A8"/>
<rect x="72.1475" y="28.6339" width="2.64776" height="2.64776" fill="#DD04A8"/>
<rect x="85.3857" y="28.6339" width="2.64776" height="2.64776" fill="#DD04A8"/>
<rect y="25.9862" width="2.64776" height="2.64776" fill="#DD04A8"/>
<rect x="58.9092" y="25.9862" width="2.64776" height="2.64776" fill="#DD04A8"/>
<rect x="72.1475" y="25.9862" width="2.64776" height="2.64776" fill="#DD04A8"/>
<rect x="85.3857" y="25.9862" width="2.64776" height="2.64776" fill="#DD04A8"/>
<rect x="88.0334" y="25.9862" width="2.64776" height="2.64776" fill="#DD04A8"/>
<rect x="90.681" y="25.9862" width="2.64776" height="2.64776" fill="#DD04A8"/>
<rect x="2.64765" y="28.6605" width="2.64776" height="2.64776" fill="#DD04A8"/>
<rect x="61.5588" y="25.9862" width="2.64776" height="2.64776" fill="#DD04A8"/>
<rect x="21.8441" y="25.9862" width="2.64776" height="2.64776" fill="#DD04A8"/>
<rect x="48.3186" y="25.9862" width="2.64776" height="2.64776" fill="#DD04A8"/>
<rect x="35.0804" y="26.4272" width="2.64776" height="1.76518" fill="#DD04A8"/>
<rect x="37.728" y="26.4272" width="2.64776" height="1.76518" fill="#DD04A8"/>
<rect x="32.4327" y="29.5168" width="2.64776" height="1.76518" fill="#DD04A8"/>
<rect x="40.3757" y="23.3386" width="2.64776" height="1.76518" fill="#DD04A8"/>
<rect x="5.29727" y="28.6605" width="2.64776" height="2.64776" fill="#DD04A8"/>
<rect x="64.2045" y="25.9862" width="2.64776" height="2.64776" fill="#DD04A8"/>
<rect x="24.4898" y="25.9862" width="2.64776" height="2.64776" fill="#DD04A8"/>
<rect x="50.9682" y="25.9862" width="2.64776" height="2.64776" fill="#DD04A8"/>
<rect x="7.94492" y="25.9862" width="2.64776" height="2.64776" fill="#DD04A8"/>
<rect x="66.8522" y="25.9862" width="2.64776" height="2.64776" fill="#DD04A8"/>
<rect x="7.94492" y="28.6339" width="2.64776" height="2.64776" fill="#DD04A8"/>
<rect x="66.8522" y="28.6339" width="2.64776" height="2.64776" fill="#DD04A8"/>
<path d="M7.94492 31.2815H10.5927V33.9293H7.94492V31.2815Z" fill="#DD04A8"/>
<rect x="66.8522" y="31.2815" width="2.64776" height="2.64776" fill="#DD04A8"/>
<rect x="13.6782" y="31.2815" width="2.64776" height="2.64776" fill="#DD04A8"/>
<rect x="19.1964" y="31.2815" width="2.64776" height="2.64776" fill="#DD04A8"/>
<rect x="45.6729" y="31.2815" width="2.64776" height="2.64776" fill="#DD04A8"/>
<rect x="35.0804" y="31.2815" width="2.64776" height="2.64776" fill="#DD04A8"/>
<rect x="37.728" y="31.2815" width="2.64776" height="2.64776" fill="#DD04A8"/>
<rect x="13.6782" y="28.6339" width="2.64776" height="2.64776" fill="#DD04A8"/>
<rect x="19.1964" y="28.6339" width="2.64776" height="2.64776" fill="#DD04A8"/>
<rect x="45.6729" y="28.6339" width="2.64776" height="2.64776" fill="#DD04A8"/>
<rect x="13.6782" y="25.9862" width="2.64776" height="2.64776" fill="#DD04A8"/>
<rect x="19.1964" y="25.9862" width="2.64776" height="2.64776" fill="#DD04A8"/>
<rect x="45.6729" y="25.9862" width="2.64776" height="2.64776" fill="#DD04A8"/>
<rect x="13.6782" y="23.3386" width="2.64776" height="2.64776" fill="#DD04A8"/>
<rect x="19.1964" y="23.3386" width="2.64776" height="2.64776" fill="#DD04A8"/>
<rect x="45.6729" y="23.3386" width="2.64776" height="2.64776" fill="#DD04A8"/>
<rect x="32.4327" y="23.3386" width="2.64776" height="2.64776" fill="#DD04A8"/>
<rect x="13.6782" y="20.6909" width="2.64776" height="2.64776" fill="#DD04A8"/>
<rect x="19.1964" y="20.6909" width="2.64776" height="2.64776" fill="#DD04A8"/>
<rect x="45.6729" y="20.6909" width="2.64776" height="2.64776" fill="#DD04A8"/>
<rect x="21.8441" y="20.6909" width="2.64776" height="2.64776" fill="#DD04A8"/>
<rect x="48.3186" y="20.6909" width="2.64776" height="2.64776" fill="#DD04A8"/>
<rect x="35.0804" y="20.6909" width="2.64776" height="2.64776" fill="#DD04A8"/>
<rect x="24.4898" y="20.6909" width="2.64776" height="2.64776" fill="#DD04A8"/>
<rect x="50.9682" y="20.6909" width="2.64776" height="2.64776" fill="#DD04A8"/>
<rect x="37.728" y="20.6909" width="2.64776" height="2.64776" fill="#DD04A8"/>
<rect x="27.1394" y="23.3386" width="2.64776" height="2.64776" fill="#DD04A8"/>
<rect x="53.612" y="23.3386" width="2.64776" height="2.64776" fill="#DD04A8"/>
<rect x="27.1394" y="31.2815" width="2.64776" height="2.64776" fill="#DD04A8"/>
<path d="M0 23.3386H2.64776V25.9863H0V23.3386Z" fill="#DD04A8"/>
<rect x="58.9092" y="23.3386" width="2.64776" height="2.64776" fill="#DD04A8"/>
<rect x="72.1475" y="23.3386" width="2.64776" height="2.64776" fill="#DD04A8"/>
<rect x="85.3857" y="23.3386" width="2.64776" height="2.64776" fill="#DD04A8"/>
<rect x="86.7096" y="22.0148" width="1.32388" height="1.32388" fill="#DD04A8"/>
<rect x="86.7096" y="31.2815" width="1.32388" height="1.32388" fill="#DD04A8"/>
<rect x="88.0334" y="31.2815" width="2.64776" height="2.64776" fill="#DD04A8"/>
<rect x="88.0334" y="20.6909" width="2.64776" height="2.64776" fill="#DD04A8"/>
<rect x="90.681" y="31.2815" width="2.64776" height="2.64776" fill="#DD04A8"/>
<rect x="90.681" y="20.6909" width="2.64776" height="2.64776" fill="#DD04A8"/>
<rect x="93.3287" y="31.2815" width="2.64776" height="2.64776" fill="#DD04A8"/>
<rect x="93.3287" y="20.6909" width="2.64776" height="2.64776" fill="#DD04A8"/>
<path d="M1.32382 22.0148H2.64771V23.3386H1.32382V22.0148Z" fill="#DD04A8"/>
<rect x="60.235" y="22.0148" width="1.32388" height="1.32388" fill="#DD04A8"/>
<rect x="73.4713" y="22.0148" width="1.32388" height="1.32388" fill="#DD04A8"/>
<rect x="73.4713" y="31.2815" width="1.32388" height="1.32388" fill="#DD04A8"/>
<path d="M7.94492 22.0148H9.2688V23.3386H7.94492V22.0148Z" fill="#DD04A8"/>
<rect x="66.8522" y="22.0148" width="1.32388" height="1.32388" fill="#DD04A8"/>
<rect x="80.0904" y="22.0148" width="1.32388" height="1.32388" fill="#DD04A8"/>
<rect x="80.0904" y="31.2815" width="1.32388" height="1.32388" fill="#DD04A8"/>
<rect x="27.1394" y="22.0148" width="1.32388" height="1.32388" fill="#DD04A8"/>
<rect x="53.612" y="22.0148" width="1.32388" height="1.32388" fill="#DD04A8"/>
<rect x="40.3757" y="22.0148" width="1.32388" height="1.32388" fill="#DD04A8"/>
<rect x="33.7585" y="22.0148" width="1.32388" height="1.32388" fill="#DD04A8"/>
<rect x="33.7585" y="25.9862" width="1.32388" height="1.32388" fill="#DD04A8"/>
<rect x="40.3757" y="27.3101" width="1.32388" height="1.32388" fill="#DD04A8"/>
<rect x="33.7585" y="31.2815" width="1.32388" height="1.32388" fill="#DD04A8"/>
<rect x="27.1394" y="25.9862" width="1.32388" height="1.32388" fill="#DD04A8"/>
<rect x="53.612" y="25.9862" width="1.32388" height="1.32388" fill="#DD04A8"/>
<rect x="40.3757" y="31.2815" width="1.32388" height="1.32388" fill="#DD04A8"/>
<rect x="27.1394" y="28.6339" width="2.64776" height="2.64776" fill="#DD04A8"/>
<rect x="40.3757" y="28.6339" width="2.64776" height="2.64776" fill="#DD04A8"/>
<path d="M7.94492 23.3386H10.5927V25.9863H7.94492V23.3386Z" fill="#DD04A8"/>
<rect x="66.8522" y="23.3386" width="2.64776" height="2.64776" fill="#DD04A8"/>
<rect x="80.0904" y="23.3386" width="2.64776" height="2.64776" fill="#DD04A8"/>
<rect x="80.0904" y="28.6339" width="2.64776" height="2.64776" fill="#DD04A8"/>
<path d="M0 51.9715H2.64776V54.6192H0V51.9715Z" fill="#DD04A8"/>
<rect x="58.9092" y="51.9715" width="2.64776" height="2.64776" fill="#DD04A8"/>
<path d="M2.64765 41.3809H5.29541V44.0286H2.64765V41.3809Z" fill="#DD04A8"/>
<rect x="61.5588" y="41.3809" width="2.64776" height="2.64776" fill="#DD04A8"/>
<rect x="74.7951" y="41.3809" width="2.64776" height="2.64776" fill="#DD04A8"/>
<rect x="74.7951" y="51.9715" width="2.64776" height="2.64776" fill="#DD04A8"/>
<path d="M5.29727 41.3809H7.94504V44.0286H5.29727V41.3809Z" fill="#DD04A8"/>
<rect x="64.2045" y="41.3809" width="2.64776" height="2.64776" fill="#DD04A8"/>
<rect x="77.4428" y="41.3809" width="2.64776" height="2.64776" fill="#DD04A8"/>
<rect x="77.4428" y="51.9715" width="2.64776" height="2.64776" fill="#DD04A8"/>
<rect y="49.3238" width="2.64776" height="2.64776" fill="#DD04A8"/>
<rect x="58.9092" y="49.3238" width="2.64776" height="2.64776" fill="#DD04A8"/>
<rect x="72.1475" y="49.3238" width="2.64776" height="2.64776" fill="#DD04A8"/>
<rect x="85.3857" y="49.3238" width="2.64776" height="2.64776" fill="#DD04A8"/>
<rect y="46.6762" width="2.64776" height="2.64776" fill="#DD04A8"/>
<rect x="58.9092" y="46.6762" width="2.64776" height="2.64776" fill="#DD04A8"/>
<rect x="72.1475" y="46.6762" width="2.64776" height="2.64776" fill="#DD04A8"/>
<rect x="85.3857" y="46.6762" width="2.64776" height="2.64776" fill="#DD04A8"/>
<rect x="88.0334" y="46.6762" width="2.64776" height="2.64776" fill="#DD04A8"/>
<rect x="90.681" y="46.6762" width="2.64776" height="2.64776" fill="#DD04A8"/>
<rect x="2.64765" y="49.3505" width="2.64776" height="2.64776" fill="#DD04A8"/>
<rect x="61.5588" y="46.6762" width="2.64776" height="2.64776" fill="#DD04A8"/>
<rect x="21.8441" y="46.6762" width="2.64776" height="2.64776" fill="#DD04A8"/>
<rect x="48.3186" y="46.6762" width="2.64776" height="2.64776" fill="#DD04A8"/>
<rect x="35.0804" y="47.1171" width="2.64776" height="1.76518" fill="#DD04A8"/>
<rect x="37.728" y="47.1171" width="2.64776" height="1.76518" fill="#DD04A8"/>
<rect x="32.4327" y="50.2067" width="2.64776" height="1.76518" fill="#DD04A8"/>
<rect x="40.3757" y="44.0285" width="2.64776" height="1.76518" fill="#DD04A8"/>
<rect x="5.29727" y="49.3505" width="2.64776" height="2.64776" fill="#DD04A8"/>
<rect x="64.2045" y="46.6762" width="2.64776" height="2.64776" fill="#DD04A8"/>
<rect x="24.4898" y="46.6762" width="2.64776" height="2.64776" fill="#DD04A8"/>
<rect x="50.9682" y="46.6762" width="2.64776" height="2.64776" fill="#DD04A8"/>
<rect x="7.94492" y="46.6762" width="2.64776" height="2.64776" fill="#DD04A8"/>
<rect x="66.8522" y="46.6762" width="2.64776" height="2.64776" fill="#DD04A8"/>
<rect x="7.94492" y="49.3238" width="2.64776" height="2.64776" fill="#DD04A8"/>
<rect x="66.8522" y="49.3238" width="2.64776" height="2.64776" fill="#DD04A8"/>
<path d="M7.94492 51.9715H10.5927V54.6192H7.94492V51.9715Z" fill="#DD04A8"/>
<rect x="66.8522" y="51.9715" width="2.64776" height="2.64776" fill="#DD04A8"/>
<rect x="13.6782" y="51.9715" width="2.64776" height="2.64776" fill="#DD04A8"/>
<rect x="19.1964" y="51.9715" width="2.64776" height="2.64776" fill="#DD04A8"/>
<rect x="45.6729" y="51.9715" width="2.64776" height="2.64776" fill="#DD04A8"/>
<rect x="35.0804" y="51.9715" width="2.64776" height="2.64776" fill="#DD04A8"/>
<rect x="37.728" y="51.9715" width="2.64776" height="2.64776" fill="#DD04A8"/>
<rect x="13.6782" y="49.3238" width="2.64776" height="2.64776" fill="#DD04A8"/>
<rect x="19.1964" y="49.3238" width="2.64776" height="2.64776" fill="#DD04A8"/>
<rect x="45.6729" y="49.3238" width="2.64776" height="2.64776" fill="#DD04A8"/>
<rect x="13.6782" y="46.6762" width="2.64776" height="2.64776" fill="#DD04A8"/>
<rect x="19.1964" y="46.6762" width="2.64776" height="2.64776" fill="#DD04A8"/>
<rect x="45.6729" y="46.6762" width="2.64776" height="2.64776" fill="#DD04A8"/>
<rect x="13.6782" y="44.0285" width="2.64776" height="2.64776" fill="#DD04A8"/>
<rect x="19.1964" y="44.0285" width="2.64776" height="2.64776" fill="#DD04A8"/>
<rect x="45.6729" y="44.0285" width="2.64776" height="2.64776" fill="#DD04A8"/>
<rect x="32.4327" y="44.0285" width="2.64776" height="2.64776" fill="#DD04A8"/>
<rect x="13.6782" y="41.3809" width="2.64776" height="2.64776" fill="#DD04A8"/>
<rect x="19.1964" y="41.3809" width="2.64776" height="2.64776" fill="#DD04A8"/>
<rect x="45.6729" y="41.3809" width="2.64776" height="2.64776" fill="#DD04A8"/>
<rect x="21.8441" y="41.3809" width="2.64776" height="2.64776" fill="#DD04A8"/>
<rect x="48.3186" y="41.3809" width="2.64776" height="2.64776" fill="#DD04A8"/>
<rect x="35.0804" y="41.3809" width="2.64776" height="2.64776" fill="#DD04A8"/>
<rect x="24.4898" y="41.3809" width="2.64776" height="2.64776" fill="#DD04A8"/>
<rect x="50.9682" y="41.3809" width="2.64776" height="2.64776" fill="#DD04A8"/>
<rect x="37.728" y="41.3809" width="2.64776" height="2.64776" fill="#DD04A8"/>
<rect x="27.1394" y="44.0285" width="2.64776" height="2.64776" fill="#DD04A8"/>
<rect x="53.612" y="44.0285" width="2.64776" height="2.64776" fill="#DD04A8"/>
<rect x="27.1394" y="51.9715" width="2.64776" height="2.64776" fill="#DD04A8"/>
<path d="M0 44.0285H2.64776V46.6763H0V44.0285Z" fill="#DD04A8"/>
<rect x="58.9092" y="44.0285" width="2.64776" height="2.64776" fill="#DD04A8"/>
<rect x="72.1475" y="44.0285" width="2.64776" height="2.64776" fill="#DD04A8"/>
<rect x="85.3857" y="44.0285" width="2.64776" height="2.64776" fill="#DD04A8"/>
<rect x="86.7096" y="42.7047" width="1.32388" height="1.32388" fill="#DD04A8"/>
<rect x="86.7096" y="51.9715" width="1.32388" height="1.32388" fill="#DD04A8"/>
<rect x="88.0334" y="51.9715" width="2.64776" height="2.64776" fill="#DD04A8"/>
<rect x="88.0334" y="41.3809" width="2.64776" height="2.64776" fill="#DD04A8"/>
<rect x="90.681" y="51.9715" width="2.64776" height="2.64776" fill="#DD04A8"/>
<rect x="90.681" y="41.3809" width="2.64776" height="2.64776" fill="#DD04A8"/>
<rect x="93.3287" y="51.9715" width="2.64776" height="2.64776" fill="#DD04A8"/>
<rect x="93.3287" y="41.3809" width="2.64776" height="2.64776" fill="#DD04A8"/>
<path d="M1.32382 42.7047H2.64771V44.0286H1.32382V42.7047Z" fill="#DD04A8"/>
<rect x="60.235" y="42.7047" width="1.32388" height="1.32388" fill="#DD04A8"/>
<rect x="73.4713" y="42.7047" width="1.32388" height="1.32388" fill="#DD04A8"/>
<rect x="73.4713" y="51.9715" width="1.32388" height="1.32388" fill="#DD04A8"/>
<path d="M7.94492 42.7047H9.2688V44.0286H7.94492V42.7047Z" fill="#DD04A8"/>
<rect x="66.8522" y="42.7047" width="1.32388" height="1.32388" fill="#DD04A8"/>
<rect x="80.0904" y="42.7047" width="1.32388" height="1.32388" fill="#DD04A8"/>
<rect x="80.0904" y="51.9715" width="1.32388" height="1.32388" fill="#DD04A8"/>
<rect x="27.1394" y="42.7047" width="1.32388" height="1.32388" fill="#DD04A8"/>
<rect x="53.612" y="42.7047" width="1.32388" height="1.32388" fill="#DD04A8"/>
<rect x="40.3757" y="42.7047" width="1.32388" height="1.32388" fill="#DD04A8"/>
<rect x="33.7585" y="42.7047" width="1.32388" height="1.32388" fill="#DD04A8"/>
<rect x="33.7585" y="46.6762" width="1.32388" height="1.32388" fill="#DD04A8"/>
<rect x="40.3757" y="48" width="1.32388" height="1.32388" fill="#DD04A8"/>
<rect x="33.7585" y="51.9715" width="1.32388" height="1.32388" fill="#DD04A8"/>
<rect x="27.1394" y="46.6762" width="1.32388" height="1.32388" fill="#DD04A8"/>
<rect x="53.612" y="46.6762" width="1.32388" height="1.32388" fill="#DD04A8"/>
<rect x="40.3757" y="51.9715" width="1.32388" height="1.32388" fill="#DD04A8"/>
<rect x="27.1394" y="49.3238" width="2.64776" height="2.64776" fill="#DD04A8"/>
<rect x="40.3757" y="49.3238" width="2.64776" height="2.64776" fill="#DD04A8"/>
<path d="M7.94492 44.0285H10.5927V46.6763H7.94492V44.0285Z" fill="#DD04A8"/>
<rect x="66.8522" y="44.0285" width="2.64776" height="2.64776" fill="#DD04A8"/>
<rect x="80.0904" y="44.0285" width="2.64776" height="2.64776" fill="#DD04A8"/>
<rect x="80.0904" y="49.3238" width="2.64776" height="2.64776" fill="#DD04A8"/>
<path d="M0 72.6624H2.64776V75.3102H0V72.6624Z" fill="#DD04A8"/>
<rect x="58.9092" y="72.6624" width="2.64776" height="2.64776" fill="#DD04A8"/>
<path d="M2.64765 62.0718H5.29541V64.7196H2.64765V62.0718Z" fill="#DD04A8"/>
<rect x="61.5588" y="62.0718" width="2.64776" height="2.64776" fill="#DD04A8"/>
<rect x="74.7951" y="62.0718" width="2.64776" height="2.64776" fill="#DD04A8"/>
<rect x="74.7951" y="72.6624" width="2.64776" height="2.64776" fill="#DD04A8"/>
<path d="M5.29727 62.0718H7.94504V64.7196H5.29727V62.0718Z" fill="#DD04A8"/>
<rect x="64.2045" y="62.0718" width="2.64776" height="2.64776" fill="#DD04A8"/>
<rect x="77.4428" y="62.0718" width="2.64776" height="2.64776" fill="#DD04A8"/>
<rect x="77.4428" y="72.6624" width="2.64776" height="2.64776" fill="#DD04A8"/>
<rect y="70.0148" width="2.64776" height="2.64776" fill="#DD04A8"/>
<rect x="58.9092" y="70.0148" width="2.64776" height="2.64776" fill="#DD04A8"/>
<rect x="72.1475" y="70.0148" width="2.64776" height="2.64776" fill="#DD04A8"/>
<rect x="85.3857" y="70.0148" width="2.64776" height="2.64776" fill="#DD04A8"/>
<rect y="67.3671" width="2.64776" height="2.64776" fill="#DD04A8"/>
<rect x="58.9092" y="67.3671" width="2.64776" height="2.64776" fill="#DD04A8"/>
<rect x="72.1475" y="67.3671" width="2.64776" height="2.64776" fill="#DD04A8"/>
<rect x="85.3857" y="67.3671" width="2.64776" height="2.64776" fill="#DD04A8"/>
<rect x="88.0334" y="67.3671" width="2.64776" height="2.64776" fill="#DD04A8"/>
<rect x="90.681" y="67.3671" width="2.64776" height="2.64776" fill="#DD04A8"/>
<rect x="2.64765" y="70.0414" width="2.64776" height="2.64776" fill="#DD04A8"/>
<rect x="61.5588" y="67.3671" width="2.64776" height="2.64776" fill="#DD04A8"/>
<rect x="21.8441" y="67.3671" width="2.64776" height="2.64776" fill="#DD04A8"/>
<rect x="48.3186" y="67.3671" width="2.64776" height="2.64776" fill="#DD04A8"/>
<rect x="35.0804" y="67.8081" width="2.64776" height="1.76518" fill="#DD04A8"/>
<rect x="37.728" y="67.8081" width="2.64776" height="1.76518" fill="#DD04A8"/>
<rect x="32.4327" y="70.8976" width="2.64776" height="1.76518" fill="#DD04A8"/>
<rect x="40.3757" y="64.7195" width="2.64776" height="1.76518" fill="#DD04A8"/>
<rect x="5.29727" y="70.0414" width="2.64776" height="2.64776" fill="#DD04A8"/>
<rect x="64.2045" y="67.3671" width="2.64776" height="2.64776" fill="#DD04A8"/>
<rect x="24.4898" y="67.3671" width="2.64776" height="2.64776" fill="#DD04A8"/>
<rect x="50.9682" y="67.3671" width="2.64776" height="2.64776" fill="#DD04A8"/>
<rect x="7.94492" y="67.3671" width="2.64776" height="2.64776" fill="#DD04A8"/>
<rect x="66.8522" y="67.3671" width="2.64776" height="2.64776" fill="#DD04A8"/>
<rect x="7.94492" y="70.0148" width="2.64776" height="2.64776" fill="#DD04A8"/>
<rect x="66.8522" y="70.0148" width="2.64776" height="2.64776" fill="#DD04A8"/>
<path d="M7.94492 72.6624H10.5927V75.3102H7.94492V72.6624Z" fill="#DD04A8"/>
<rect x="66.8522" y="72.6624" width="2.64776" height="2.64776" fill="#DD04A8"/>
<rect x="13.6782" y="72.6624" width="2.64776" height="2.64776" fill="#DD04A8"/>
<rect x="19.1964" y="72.6624" width="2.64776" height="2.64776" fill="#DD04A8"/>
<rect x="45.6729" y="72.6624" width="2.64776" height="2.64776" fill="#DD04A8"/>
<rect x="35.0804" y="72.6624" width="2.64776" height="2.64776" fill="#DD04A8"/>
<rect x="37.728" y="72.6624" width="2.64776" height="2.64776" fill="#DD04A8"/>
<rect x="13.6782" y="70.0148" width="2.64776" height="2.64776" fill="#DD04A8"/>
<rect x="19.1964" y="70.0148" width="2.64776" height="2.64776" fill="#DD04A8"/>
<rect x="45.6729" y="70.0148" width="2.64776" height="2.64776" fill="#DD04A8"/>
<rect x="13.6782" y="67.3671" width="2.64776" height="2.64776" fill="#DD04A8"/>
<rect x="19.1964" y="67.3671" width="2.64776" height="2.64776" fill="#DD04A8"/>
<rect x="45.6729" y="67.3671" width="2.64776" height="2.64776" fill="#DD04A8"/>
<rect x="13.6782" y="64.7195" width="2.64776" height="2.64776" fill="#DD04A8"/>
<rect x="19.1964" y="64.7195" width="2.64776" height="2.64776" fill="#DD04A8"/>
<rect x="45.6729" y="64.7195" width="2.64776" height="2.64776" fill="#DD04A8"/>
<rect x="32.4327" y="64.7195" width="2.64776" height="2.64776" fill="#DD04A8"/>
<rect x="13.6782" y="62.0718" width="2.64776" height="2.64776" fill="#DD04A8"/>
<rect x="19.1964" y="62.0718" width="2.64776" height="2.64776" fill="#DD04A8"/>
<rect x="45.6729" y="62.0718" width="2.64776" height="2.64776" fill="#DD04A8"/>
<rect x="21.8441" y="62.0718" width="2.64776" height="2.64776" fill="#DD04A8"/>
<rect x="48.3186" y="62.0718" width="2.64776" height="2.64776" fill="#DD04A8"/>
<rect x="35.0804" y="62.0718" width="2.64776" height="2.64776" fill="#DD04A8"/>
<rect x="24.4898" y="62.0718" width="2.64776" height="2.64776" fill="#DD04A8"/>
<rect x="50.9682" y="62.0718" width="2.64776" height="2.64776" fill="#DD04A8"/>
<rect x="37.728" y="62.0718" width="2.64776" height="2.64776" fill="#DD04A8"/>
<rect x="27.1394" y="64.7195" width="2.64776" height="2.64776" fill="#DD04A8"/>
<rect x="53.612" y="64.7195" width="2.64776" height="2.64776" fill="#DD04A8"/>
<rect x="27.1394" y="72.6624" width="2.64776" height="2.64776" fill="#DD04A8"/>
<path d="M0 64.7195H2.64776V67.3672H0V64.7195Z" fill="#DD04A8"/>
<rect x="58.9092" y="64.7195" width="2.64776" height="2.64776" fill="#DD04A8"/>
<rect x="72.1475" y="64.7195" width="2.64776" height="2.64776" fill="#DD04A8"/>
<rect x="85.3857" y="64.7195" width="2.64776" height="2.64776" fill="#DD04A8"/>
<rect x="86.7096" y="63.3956" width="1.32388" height="1.32388" fill="#DD04A8"/>
<rect x="86.7096" y="72.6624" width="1.32388" height="1.32388" fill="#DD04A8"/>
<rect x="88.0334" y="72.6624" width="2.64776" height="2.64776" fill="#DD04A8"/>
<rect x="88.0334" y="62.0718" width="2.64776" height="2.64776" fill="#DD04A8"/>
<rect x="90.681" y="72.6624" width="2.64776" height="2.64776" fill="#DD04A8"/>
<rect x="90.681" y="62.0718" width="2.64776" height="2.64776" fill="#DD04A8"/>
<rect x="93.3287" y="72.6624" width="2.64776" height="2.64776" fill="#DD04A8"/>
<rect x="93.3287" y="62.0718" width="2.64776" height="2.64776" fill="#DD04A8"/>
<path d="M1.32382 63.3956H2.64771V64.7195H1.32382V63.3956Z" fill="#DD04A8"/>
<rect x="60.235" y="63.3956" width="1.32388" height="1.32388" fill="#DD04A8"/>
<rect x="73.4713" y="63.3956" width="1.32388" height="1.32388" fill="#DD04A8"/>
<rect x="73.4713" y="72.6624" width="1.32388" height="1.32388" fill="#DD04A8"/>
<path d="M7.94492 63.3956H9.2688V64.7195H7.94492V63.3956Z" fill="#DD04A8"/>
<rect x="66.8522" y="63.3956" width="1.32388" height="1.32388" fill="#DD04A8"/>
<rect x="80.0904" y="63.3956" width="1.32388" height="1.32388" fill="#DD04A8"/>
<rect x="80.0904" y="72.6624" width="1.32388" height="1.32388" fill="#DD04A8"/>
<rect x="27.1394" y="63.3956" width="1.32388" height="1.32388" fill="#DD04A8"/>
<rect x="53.612" y="63.3956" width="1.32388" height="1.32388" fill="#DD04A8"/>
<rect x="40.3757" y="63.3956" width="1.32388" height="1.32388" fill="#DD04A8"/>
<rect x="33.7585" y="63.3956" width="1.32388" height="1.32388" fill="#DD04A8"/>
<rect x="33.7585" y="67.3671" width="1.32388" height="1.32388" fill="#DD04A8"/>
<rect x="40.3757" y="68.6909" width="1.32388" height="1.32388" fill="#DD04A8"/>
<rect x="33.7585" y="72.6624" width="1.32388" height="1.32388" fill="#DD04A8"/>
<rect x="27.1394" y="67.3671" width="1.32388" height="1.32388" fill="#DD04A8"/>
<rect x="53.612" y="67.3671" width="1.32388" height="1.32388" fill="#DD04A8"/>
<rect x="40.3757" y="72.6624" width="1.32388" height="1.32388" fill="#DD04A8"/>
<rect x="27.1394" y="70.0148" width="2.64776" height="2.64776" fill="#DD04A8"/>
<rect x="40.3757" y="70.0148" width="2.64776" height="2.64776" fill="#DD04A8"/>
<path d="M7.94492 64.7195H10.5927V67.3672H7.94492V64.7195Z" fill="#DD04A8"/>
<rect x="66.8522" y="64.7195" width="2.64776" height="2.64776" fill="#DD04A8"/>
<rect x="80.0904" y="64.7195" width="2.64776" height="2.64776" fill="#DD04A8"/>
<rect x="80.0904" y="70.0148" width="2.64776" height="2.64776" fill="#DD04A8"/>
<path d="M0 93.3524H2.64776V96.0001H0V93.3524Z" fill="#DD04A8"/>
<rect x="58.9092" y="93.3524" width="2.64776" height="2.64776" fill="#DD04A8"/>
<path d="M2.64765 82.7618H5.29541V85.4095H2.64765V82.7618Z" fill="#DD04A8"/>
<rect x="61.5588" y="82.7618" width="2.64776" height="2.64776" fill="#DD04A8"/>
<rect x="74.7951" y="82.7618" width="2.64776" height="2.64776" fill="#DD04A8"/>
<rect x="74.7951" y="93.3524" width="2.64776" height="2.64776" fill="#DD04A8"/>
<path d="M5.29727 82.7618H7.94504V85.4095H5.29727V82.7618Z" fill="#DD04A8"/>
<rect x="64.2045" y="82.7618" width="2.64776" height="2.64776" fill="#DD04A8"/>
<rect x="77.4428" y="82.7618" width="2.64776" height="2.64776" fill="#DD04A8"/>
<rect x="77.4428" y="93.3524" width="2.64776" height="2.64776" fill="#DD04A8"/>
<rect y="90.7047" width="2.64776" height="2.64776" fill="#DD04A8"/>
<rect x="58.9092" y="90.7047" width="2.64776" height="2.64776" fill="#DD04A8"/>
<rect x="72.1475" y="90.7047" width="2.64776" height="2.64776" fill="#DD04A8"/>
<rect x="85.3857" y="90.7047" width="2.64776" height="2.64776" fill="#DD04A8"/>
<rect y="88.0571" width="2.64776" height="2.64776" fill="#DD04A8"/>
<rect x="58.9092" y="88.0571" width="2.64776" height="2.64776" fill="#DD04A8"/>
<rect x="72.1475" y="88.0571" width="2.64776" height="2.64776" fill="#DD04A8"/>
<rect x="85.3857" y="88.0571" width="2.64776" height="2.64776" fill="#DD04A8"/>
<rect x="88.0334" y="88.0571" width="2.64776" height="2.64776" fill="#DD04A8"/>
<rect x="90.681" y="88.0571" width="2.64776" height="2.64776" fill="#DD04A8"/>
<rect x="2.64765" y="90.7313" width="2.64776" height="2.64776" fill="#DD04A8"/>
<rect x="61.5588" y="88.0571" width="2.64776" height="2.64776" fill="#DD04A8"/>
<rect x="21.8441" y="88.0571" width="2.64776" height="2.64776" fill="#DD04A8"/>
<rect x="48.3186" y="88.0571" width="2.64776" height="2.64776" fill="#DD04A8"/>
<rect x="35.0804" y="88.499" width="2.64776" height="1.76518" fill="#DD04A8"/>
<rect x="37.728" y="88.499" width="2.64776" height="1.76518" fill="#DD04A8"/>
<rect x="32.4327" y="91.5876" width="2.64776" height="1.76518" fill="#DD04A8"/>
<rect x="40.3757" y="85.4094" width="2.64776" height="1.76518" fill="#DD04A8"/>
<rect x="5.29727" y="90.7313" width="2.64776" height="2.64776" fill="#DD04A8"/>
<rect x="64.2045" y="88.0571" width="2.64776" height="2.64776" fill="#DD04A8"/>
<rect x="24.4898" y="88.0571" width="2.64776" height="2.64776" fill="#DD04A8"/>
<rect x="50.9682" y="88.0571" width="2.64776" height="2.64776" fill="#DD04A8"/>
<rect x="7.94492" y="88.0571" width="2.64776" height="2.64776" fill="#DD04A8"/>
<rect x="66.8522" y="88.0571" width="2.64776" height="2.64776" fill="#DD04A8"/>
<rect x="7.94492" y="90.7047" width="2.64776" height="2.64776" fill="#DD04A8"/>
<rect x="66.8522" y="90.7047" width="2.64776" height="2.64776" fill="#DD04A8"/>
<path d="M7.94492 93.3524H10.5927V96.0001H7.94492V93.3524Z" fill="#DD04A8"/>
<rect x="66.8522" y="93.3524" width="2.64776" height="2.64776" fill="#DD04A8"/>
<rect x="13.6782" y="93.3524" width="2.64776" height="2.64776" fill="#DD04A8"/>
<rect x="19.1964" y="93.3524" width="2.64776" height="2.64776" fill="#DD04A8"/>
<rect x="45.6729" y="93.3524" width="2.64776" height="2.64776" fill="#DD04A8"/>
<rect x="35.0804" y="93.3524" width="2.64776" height="2.64776" fill="#DD04A8"/>
<rect x="37.728" y="93.3524" width="2.64776" height="2.64776" fill="#DD04A8"/>
<rect x="13.6782" y="90.7047" width="2.64776" height="2.64776" fill="#DD04A8"/>
<rect x="19.1964" y="90.7047" width="2.64776" height="2.64776" fill="#DD04A8"/>
<rect x="45.6729" y="90.7047" width="2.64776" height="2.64776" fill="#DD04A8"/>
<rect x="13.6782" y="88.0571" width="2.64776" height="2.64776" fill="#DD04A8"/>
<rect x="19.1964" y="88.0571" width="2.64776" height="2.64776" fill="#DD04A8"/>
<rect x="45.6729" y="88.0571" width="2.64776" height="2.64776" fill="#DD04A8"/>
<rect x="13.6782" y="85.4094" width="2.64776" height="2.64776" fill="#DD04A8"/>
<rect x="19.1964" y="85.4094" width="2.64776" height="2.64776" fill="#DD04A8"/>
<rect x="45.6729" y="85.4094" width="2.64776" height="2.64776" fill="#DD04A8"/>
<rect x="32.4327" y="85.4094" width="2.64776" height="2.64776" fill="#DD04A8"/>
<rect x="13.6782" y="82.7618" width="2.64776" height="2.64776" fill="#DD04A8"/>
<rect x="19.1964" y="82.7618" width="2.64776" height="2.64776" fill="#DD04A8"/>
<rect x="45.6729" y="82.7618" width="2.64776" height="2.64776" fill="#DD04A8"/>
<rect x="21.8441" y="82.7618" width="2.64776" height="2.64776" fill="#DD04A8"/>
<rect x="48.3186" y="82.7618" width="2.64776" height="2.64776" fill="#DD04A8"/>
<rect x="35.0804" y="82.7618" width="2.64776" height="2.64776" fill="#DD04A8"/>
<rect x="24.4898" y="82.7618" width="2.64776" height="2.64776" fill="#DD04A8"/>
<rect x="50.9682" y="82.7618" width="2.64776" height="2.64776" fill="#DD04A8"/>
<rect x="37.728" y="82.7618" width="2.64776" height="2.64776" fill="#DD04A8"/>
<rect x="27.1394" y="85.4094" width="2.64776" height="2.64776" fill="#DD04A8"/>
<rect x="53.612" y="85.4094" width="2.64776" height="2.64776" fill="#DD04A8"/>
<rect x="27.1394" y="93.3524" width="2.64776" height="2.64776" fill="#DD04A8"/>
<path d="M0 85.4094H2.64776V88.0572H0V85.4094Z" fill="#DD04A8"/>
<rect x="58.9092" y="85.4094" width="2.64776" height="2.64776" fill="#DD04A8"/>
<rect x="72.1475" y="85.4094" width="2.64776" height="2.64776" fill="#DD04A8"/>
<rect x="85.3857" y="85.4094" width="2.64776" height="2.64776" fill="#DD04A8"/>
<rect x="86.7096" y="84.0856" width="1.32388" height="1.32388" fill="#DD04A8"/>
<rect x="86.7096" y="93.3524" width="1.32388" height="1.32388" fill="#DD04A8"/>
<rect x="88.0334" y="93.3524" width="2.64776" height="2.64776" fill="#DD04A8"/>
<rect x="88.0334" y="82.7618" width="2.64776" height="2.64776" fill="#DD04A8"/>
<rect x="90.681" y="93.3524" width="2.64776" height="2.64776" fill="#DD04A8"/>
<rect x="90.681" y="82.7618" width="2.64776" height="2.64776" fill="#DD04A8"/>
<rect x="93.3287" y="93.3524" width="2.64776" height="2.64776" fill="#DD04A8"/>
<rect x="93.3287" y="82.7618" width="2.64776" height="2.64776" fill="#DD04A8"/>
<path d="M1.32382 84.0856H2.64771V85.4095H1.32382V84.0856Z" fill="#DD04A8"/>
<rect x="60.235" y="84.0856" width="1.32388" height="1.32388" fill="#DD04A8"/>
<rect x="73.4713" y="84.0856" width="1.32388" height="1.32388" fill="#DD04A8"/>
<rect x="73.4713" y="93.3524" width="1.32388" height="1.32388" fill="#DD04A8"/>
<path d="M7.94492 84.0856H9.2688V85.4095H7.94492V84.0856Z" fill="#DD04A8"/>
<rect x="66.8522" y="84.0856" width="1.32388" height="1.32388" fill="#DD04A8"/>
<rect x="80.0904" y="84.0856" width="1.32388" height="1.32388" fill="#DD04A8"/>
<rect x="80.0904" y="93.3524" width="1.32388" height="1.32388" fill="#DD04A8"/>
<rect x="27.1394" y="84.0856" width="1.32388" height="1.32388" fill="#DD04A8"/>
<rect x="53.612" y="84.0856" width="1.32388" height="1.32388" fill="#DD04A8"/>
<rect x="40.3757" y="84.0856" width="1.32388" height="1.32388" fill="#DD04A8"/>
<rect x="33.7585" y="84.0856" width="1.32388" height="1.32388" fill="#DD04A8"/>
<rect x="33.7585" y="88.0571" width="1.32388" height="1.32388" fill="#DD04A8"/>
<rect x="40.3757" y="89.3809" width="1.32388" height="1.32388" fill="#DD04A8"/>
<rect x="33.7585" y="93.3524" width="1.32388" height="1.32388" fill="#DD04A8"/>
<rect x="27.1394" y="88.0571" width="1.32388" height="1.32388" fill="#DD04A8"/>
<rect x="53.612" y="88.0571" width="1.32388" height="1.32388" fill="#DD04A8"/>
<rect x="40.3757" y="93.3524" width="1.32388" height="1.32388" fill="#DD04A8"/>
<rect x="27.1394" y="90.7047" width="2.64776" height="2.64776" fill="#DD04A8"/>
<rect x="40.3757" y="90.7047" width="2.64776" height="2.64776" fill="#DD04A8"/>
<path d="M7.94492 85.4094H10.5927V88.0572H7.94492V85.4094Z" fill="#DD04A8"/>
<rect x="66.8522" y="85.4094" width="2.64776" height="2.64776" fill="#DD04A8"/>
<rect x="80.0904" y="85.4094" width="2.64776" height="2.64776" fill="#DD04A8"/>
<rect x="80.0904" y="90.7047" width="2.64776" height="2.64776" fill="#DD04A8"/>
</svg>
