<svg width="196" height="27" viewBox="0 0 196 27" fill="none" xmlns="http://www.w3.org/2000/svg">
<path d="M0 21.5996H5.40028V26.9999H0V21.5996Z" fill="#014D47"/>
<rect x="120.148" y="21.5996" width="5.40028" height="5.40028" fill="#014D47"/>
<path d="M5.40234 0H10.8026V5.40028H5.40234V0Z" fill="#014D47"/>
<rect x="125.551" width="5.40028" height="5.40028" fill="#014D47"/>
<rect x="152.547" width="5.40028" height="5.40028" fill="#014D47"/>
<rect x="152.547" y="21.5996" width="5.40028" height="5.40028" fill="#014D47"/>
<path d="M10.8008 0H16.2011V5.40028H10.8008V0Z" fill="#014D47"/>
<rect x="130.949" width="5.40028" height="5.40028" fill="#014D47"/>
<rect x="157.949" width="5.40028" height="5.40028" fill="#014D47"/>
<rect x="157.949" y="21.5996" width="5.40028" height="5.40028" fill="#014D47"/>
<rect y="16.2002" width="5.40028" height="5.40028" fill="#014D47"/>
<rect x="120.148" y="16.2002" width="5.40028" height="5.40028" fill="#014D47"/>
<rect x="147.148" y="16.2002" width="5.40028" height="5.40028" fill="#014D47"/>
<rect x="174.148" y="16.2002" width="5.40028" height="5.40028" fill="#014D47"/>
<rect y="10.7998" width="5.40028" height="5.40028" fill="#014D47"/>
<rect x="120.148" y="10.7998" width="5.40028" height="5.40028" fill="#014D47"/>
<rect x="147.148" y="10.7998" width="5.40028" height="5.40028" fill="#014D47"/>
<rect x="174.148" y="10.7998" width="5.40028" height="5.40028" fill="#014D47"/>
<rect x="179.551" y="10.7998" width="5.40028" height="5.40028" fill="#014D47"/>
<rect x="184.949" y="10.7998" width="5.40028" height="5.40028" fill="#014D47"/>
<rect x="5.40234" y="16.2549" width="5.40028" height="5.40028" fill="#014D47"/>
<rect x="125.551" y="10.7998" width="5.40028" height="5.40028" fill="#014D47"/>
<rect x="44.5508" y="10.7998" width="5.40028" height="5.40028" fill="#014D47"/>
<rect x="98.5508" y="10.7998" width="5.40028" height="5.40028" fill="#014D47"/>
<rect x="71.5508" y="11.7002" width="5.40028" height="3.60019" fill="#014D47"/>
<rect x="76.9492" y="11.7002" width="5.40028" height="3.60019" fill="#014D47"/>
<rect x="66.1484" y="18" width="5.40028" height="3.60019" fill="#014D47"/>
<rect x="82.3516" y="5.39941" width="5.40028" height="3.60019" fill="#014D47"/>
<rect x="10.8008" y="16.2549" width="5.40028" height="5.40028" fill="#014D47"/>
<rect x="130.949" y="10.7998" width="5.40028" height="5.40028" fill="#014D47"/>
<rect x="49.9492" y="10.7998" width="5.40028" height="5.40028" fill="#014D47"/>
<rect x="103.949" y="10.7998" width="5.40028" height="5.40028" fill="#014D47"/>
<rect x="16.1992" y="10.7998" width="5.40028" height="5.40028" fill="#014D47"/>
<rect x="136.348" y="10.7998" width="5.40028" height="5.40028" fill="#014D47"/>
<rect x="16.1992" y="16.2002" width="5.40028" height="5.40028" fill="#014D47"/>
<rect x="136.348" y="16.2002" width="5.40028" height="5.40028" fill="#014D47"/>
<path d="M16.1992 21.5996H21.5995V26.9999H16.1992V21.5996Z" fill="#014D47"/>
<rect x="136.348" y="21.5996" width="5.40028" height="5.40028" fill="#014D47"/>
<rect x="27.8984" y="21.5996" width="5.40028" height="5.40028" fill="#014D47"/>
<rect x="39.1523" y="21.5996" width="5.40028" height="5.40028" fill="#014D47"/>
<rect x="93.1484" y="21.5996" width="5.40028" height="5.40028" fill="#014D47"/>
<rect x="71.5508" y="21.5996" width="5.40028" height="5.40028" fill="#014D47"/>
<rect x="76.9492" y="21.5996" width="5.40028" height="5.40028" fill="#014D47"/>
<rect x="27.8984" y="16.2002" width="5.40028" height="5.40028" fill="#014D47"/>
<rect x="39.1523" y="16.2002" width="5.40028" height="5.40028" fill="#014D47"/>
<rect x="93.1484" y="16.2002" width="5.40028" height="5.40028" fill="#014D47"/>
<rect x="27.8984" y="10.7998" width="5.40028" height="5.40028" fill="#014D47"/>
<rect x="39.1523" y="10.7998" width="5.40028" height="5.40028" fill="#014D47"/>
<rect x="93.1484" y="10.7998" width="5.40028" height="5.40028" fill="#014D47"/>
<rect x="27.8984" y="5.39941" width="5.40028" height="5.40028" fill="#014D47"/>
<rect x="39.1523" y="5.39941" width="5.40028" height="5.40028" fill="#014D47"/>
<rect x="93.1484" y="5.39941" width="5.40028" height="5.40028" fill="#014D47"/>
<rect x="66.1484" y="5.39941" width="5.40028" height="5.40028" fill="#014D47"/>
<rect x="27.8984" width="5.40028" height="5.40028" fill="#014D47"/>
<rect x="39.1523" width="5.40028" height="5.40028" fill="#014D47"/>
<rect x="93.1484" width="5.40028" height="5.40028" fill="#014D47"/>
<rect x="44.5508" width="5.40028" height="5.40028" fill="#014D47"/>
<rect x="98.5508" width="5.40028" height="5.40028" fill="#014D47"/>
<rect x="71.5508" width="5.40028" height="5.40028" fill="#014D47"/>
<rect x="49.9492" width="5.40028" height="5.40028" fill="#014D47"/>
<rect x="103.949" width="5.40028" height="5.40028" fill="#014D47"/>
<rect x="76.9492" width="5.40028" height="5.40028" fill="#014D47"/>
<rect x="55.3516" y="5.39941" width="5.40028" height="5.40028" fill="#014D47"/>
<rect x="109.348" y="5.39941" width="5.40028" height="5.40028" fill="#014D47"/>
<rect x="55.3516" y="21.5996" width="5.40028" height="5.40028" fill="#014D47"/>
<path d="M0 5.39941H5.40028V10.7997H0V5.39941Z" fill="#014D47"/>
<rect x="120.148" y="5.39941" width="5.40028" height="5.40028" fill="#014D47"/>
<rect x="147.148" y="5.39941" width="5.40028" height="5.40028" fill="#014D47"/>
<rect x="174.148" y="5.39941" width="5.40028" height="5.40028" fill="#014D47"/>
<rect x="176.848" y="2.7002" width="2.70014" height="2.70014" fill="#014D47"/>
<rect x="176.848" y="21.5996" width="2.70014" height="2.70014" fill="#014D47"/>
<rect x="179.551" y="21.5996" width="5.40028" height="5.40028" fill="#014D47"/>
<rect x="179.551" width="5.40028" height="5.40028" fill="#014D47"/>
<rect x="184.949" y="21.5996" width="5.40028" height="5.40028" fill="#014D47"/>
<rect x="184.949" width="5.40028" height="5.40028" fill="#014D47"/>
<rect x="190.348" y="21.5996" width="5.40028" height="5.40028" fill="#014D47"/>
<rect x="190.348" width="5.40028" height="5.40028" fill="#014D47"/>
<path d="M2.69922 2.7002H5.39936V5.40034H2.69922V2.7002Z" fill="#014D47"/>
<rect x="122.852" y="2.7002" width="2.70014" height="2.70014" fill="#014D47"/>
<rect x="149.848" y="2.7002" width="2.70014" height="2.70014" fill="#014D47"/>
<rect x="149.848" y="21.5996" width="2.70014" height="2.70014" fill="#014D47"/>
<path d="M16.1992 2.7002H18.8994V5.40034H16.1992V2.7002Z" fill="#014D47"/>
<rect x="136.348" y="2.7002" width="2.70014" height="2.70014" fill="#014D47"/>
<rect x="163.352" y="2.7002" width="2.70014" height="2.70014" fill="#014D47"/>
<rect x="163.352" y="21.5996" width="2.70014" height="2.70014" fill="#014D47"/>
<rect x="55.3516" y="2.7002" width="2.70014" height="2.70014" fill="#014D47"/>
<rect x="109.348" y="2.7002" width="2.70014" height="2.70014" fill="#014D47"/>
<rect x="82.3516" y="2.7002" width="2.70014" height="2.70014" fill="#014D47"/>
<rect x="68.8516" y="2.7002" width="2.70014" height="2.70014" fill="#014D47"/>
<rect x="68.8516" y="10.7998" width="2.70014" height="2.70014" fill="#014D47"/>
<rect x="82.3516" y="13.5" width="2.70014" height="2.70014" fill="#014D47"/>
<rect x="68.8516" y="21.5996" width="2.70014" height="2.70014" fill="#014D47"/>
<rect x="55.3516" y="10.7998" width="2.70014" height="2.70014" fill="#014D47"/>
<rect x="109.348" y="10.7998" width="2.70014" height="2.70014" fill="#014D47"/>
<rect x="82.3516" y="21.5996" width="2.70014" height="2.70014" fill="#014D47"/>
<rect x="55.3516" y="16.2002" width="5.40028" height="5.40028" fill="#014D47"/>
<rect x="82.3516" y="16.2002" width="5.40028" height="5.40028" fill="#014D47"/>
<path d="M16.1992 5.39941H21.5995V10.7997H16.1992V5.39941Z" fill="#014D47"/>
<rect x="136.348" y="5.39941" width="5.40028" height="5.40028" fill="#014D47"/>
<rect x="163.352" y="5.39941" width="5.40028" height="5.40028" fill="#014D47"/>
<rect x="163.352" y="16.2002" width="5.40028" height="5.40028" fill="#014D47"/>
</svg>
