<svg width="921" height="96" viewBox="-3 0 921 96" fill="none" xmlns="http://www.w3.org/2000/svg">
<g>
<rect x="51.1484" y="56.5996" width="5.40028" height="5.40028" fill="#014D47"/>
<rect x="56.5508" y="35" width="5.40028" height="5.40028" fill="#014D47"/>
<rect x="83.5469" y="35" width="5.40028" height="5.40028" fill="#014D47"/>
<rect x="83.5469" y="56.5996" width="5.40028" height="5.40028" fill="#014D47"/>
<rect x="61.9492" y="35" width="5.40028" height="5.40028" fill="#014D47"/>
<rect x="88.9492" y="35" width="5.40028" height="5.40028" fill="#014D47"/>
<rect x="88.9492" y="56.5996" width="5.40028" height="5.40028" fill="#014D47"/>
<rect x="51.1484" y="51.2002" width="5.40028" height="5.40028" fill="#014D47"/>
<rect x="78.1484" y="51.2002" width="5.40028" height="5.40028" fill="#014D47"/>
<rect x="105.148" y="51.2002" width="5.40028" height="5.40028" fill="#014D47"/>
<rect x="51.1484" y="45.7998" width="5.40028" height="5.40028" fill="#014D47"/>
<rect x="78.1484" y="45.7998" width="5.40028" height="5.40028" fill="#014D47"/>
<rect x="105.148" y="45.7998" width="5.40028" height="5.40028" fill="#014D47"/>
<rect x="110.551" y="45.7998" width="5.40028" height="5.40028" fill="#014D47"/>
<rect x="115.949" y="45.7998" width="5.40028" height="5.40028" fill="#014D47"/>
<rect x="56.5508" y="45.7998" width="5.40028" height="5.40028" fill="#014D47"/>
<rect x="29.5508" y="45.7998" width="5.40028" height="5.40028" fill="#014D47"/>
<rect x="2.55078" y="46.7002" width="5.40028" height="3.60019" fill="#014D47"/>
<rect x="7.94922" y="46.7002" width="5.40028" height="3.60019" fill="#014D47"/>
<rect x="-2.85156" y="53" width="5.40028" height="3.60019" fill="#014D47"/>
<rect x="13.3516" y="40.3994" width="5.40028" height="3.60019" fill="#014D47"/>
<rect x="61.9492" y="45.7998" width="5.40028" height="5.40028" fill="#014D47"/>
<rect x="34.9492" y="45.7998" width="5.40028" height="5.40028" fill="#014D47"/>
<rect x="67.3477" y="45.7998" width="5.40028" height="5.40028" fill="#014D47"/>
<rect x="67.3477" y="51.2002" width="5.40028" height="5.40028" fill="#014D47"/>
<rect x="67.3477" y="56.5996" width="5.40028" height="5.40028" fill="#014D47"/>
<rect x="24.1484" y="56.5996" width="5.40028" height="5.40028" fill="#014D47"/>
<rect x="2.55078" y="56.5996" width="5.40028" height="5.40028" fill="#014D47"/>
<rect x="7.94922" y="56.5996" width="5.40028" height="5.40028" fill="#014D47"/>
<rect x="24.1484" y="51.2002" width="5.40028" height="5.40028" fill="#014D47"/>
<rect x="24.1484" y="45.7998" width="5.40028" height="5.40028" fill="#014D47"/>
<rect x="24.1484" y="40.3994" width="5.40028" height="5.40028" fill="#014D47"/>
<rect x="-2.85156" y="40.3994" width="5.40028" height="5.40028" fill="#014D47"/>
<rect x="24.1484" y="35" width="5.40028" height="5.40028" fill="#014D47"/>
<rect x="29.5508" y="35" width="5.40028" height="5.40028" fill="#014D47"/>
<rect x="2.55078" y="35" width="5.40028" height="5.40028" fill="#014D47"/>
<rect x="34.9492" y="35" width="5.40028" height="5.40028" fill="#014D47"/>
<rect x="7.94922" y="35" width="5.40028" height="5.40028" fill="#014D47"/>
<rect x="40.3477" y="40.3994" width="5.40028" height="5.40028" fill="#014D47"/>
<rect x="51.1484" y="40.3994" width="5.40028" height="5.40028" fill="#014D47"/>
<rect x="78.1484" y="40.3994" width="5.40028" height="5.40028" fill="#014D47"/>
<rect x="105.148" y="40.3994" width="5.40028" height="5.40028" fill="#014D47"/>
<rect x="107.848" y="37.7002" width="2.70014" height="2.70014" fill="#014D47"/>
<rect x="107.848" y="56.5996" width="2.70014" height="2.70014" fill="#014D47"/>
<rect x="110.551" y="56.5996" width="5.40028" height="5.40028" fill="#014D47"/>
<rect x="110.551" y="35" width="5.40028" height="5.40028" fill="#014D47"/>
<rect x="115.949" y="56.5996" width="5.40028" height="5.40028" fill="#014D47"/>
<rect x="115.949" y="35" width="5.40028" height="5.40028" fill="#014D47"/>
<rect x="121.348" y="56.5996" width="5.40028" height="5.40028" fill="#014D47"/>
<rect x="121.348" y="35" width="5.40028" height="5.40028" fill="#014D47"/>
<rect x="53.8516" y="37.7002" width="2.70014" height="2.70014" fill="#014D47"/>
<rect x="80.8477" y="37.7002" width="2.70014" height="2.70014" fill="#014D47"/>
<rect x="80.8477" y="56.5996" width="2.70014" height="2.70014" fill="#014D47"/>
<rect x="67.3477" y="37.7002" width="2.70014" height="2.70014" fill="#014D47"/>
<rect x="94.3516" y="37.7002" width="2.70014" height="2.70014" fill="#014D47"/>
<rect x="94.3516" y="56.5996" width="2.70014" height="2.70014" fill="#014D47"/>
<rect x="40.3477" y="37.7002" width="2.70014" height="2.70014" fill="#014D47"/>
<rect x="13.3516" y="37.7002" width="2.70014" height="2.70014" fill="#014D47"/>
<rect x="-0.148438" y="37.7002" width="2.70014" height="2.70014" fill="#014D47"/>
<rect x="-0.148438" y="45.7998" width="2.70014" height="2.70014" fill="#014D47"/>
<rect x="13.3516" y="48.5" width="2.70014" height="2.70014" fill="#014D47"/>
<rect x="-0.148438" y="56.5996" width="2.70014" height="2.70014" fill="#014D47"/>
<rect x="40.3477" y="45.7998" width="2.70014" height="2.70014" fill="#014D47"/>
<rect x="13.3516" y="56.5996" width="2.70014" height="2.70014" fill="#014D47"/>
<rect x="13.3516" y="51.2002" width="5.40028" height="5.40028" fill="#014D47"/>
<rect x="67.3477" y="40.3994" width="5.40028" height="5.40028" fill="#014D47"/>
<rect x="94.3516" y="40.3994" width="5.40028" height="5.40028" fill="#014D47"/>
<rect x="94.3516" y="51.2002" width="5.40028" height="5.40028" fill="#014D47"/>
<path d="M194.746 56.5996H200.146V61.9999H194.746V56.5996Z" fill="#014D47"/>
<rect x="314.895" y="56.5996" width="5.40028" height="5.40028" fill="#014D47"/>
<path d="M200.148 35H205.549V40.4003H200.148V35Z" fill="#014D47"/>
<rect x="320.297" y="35" width="5.40028" height="5.40028" fill="#014D47"/>
<rect x="347.293" y="35" width="5.40028" height="5.40028" fill="#014D47"/>
<rect x="347.293" y="56.5996" width="5.40028" height="5.40028" fill="#014D47"/>
<path d="M205.547 35H210.947V40.4003H205.547V35Z" fill="#014D47"/>
<rect x="325.695" y="35" width="5.40028" height="5.40028" fill="#014D47"/>
<rect x="352.695" y="35" width="5.40028" height="5.40028" fill="#014D47"/>
<rect x="352.695" y="56.5996" width="5.40028" height="5.40028" fill="#014D47"/>
<rect x="194.746" y="51.2002" width="5.40028" height="5.40028" fill="#014D47"/>
<rect x="314.895" y="51.2002" width="5.40028" height="5.40028" fill="#014D47"/>
<rect x="341.895" y="51.2002" width="5.40028" height="5.40028" fill="#014D47"/>
<rect x="368.895" y="51.2002" width="5.40028" height="5.40028" fill="#014D47"/>
<rect x="194.746" y="45.7998" width="5.40028" height="5.40028" fill="#014D47"/>
<rect x="314.895" y="45.7998" width="5.40028" height="5.40028" fill="#014D47"/>
<rect x="341.895" y="45.7998" width="5.40028" height="5.40028" fill="#014D47"/>
<rect x="368.895" y="45.7998" width="5.40028" height="5.40028" fill="#014D47"/>
<rect x="374.297" y="45.7998" width="5.40028" height="5.40028" fill="#014D47"/>
<rect x="379.695" y="45.7998" width="5.40028" height="5.40028" fill="#014D47"/>
<rect x="200.148" y="51.2549" width="5.40028" height="5.40028" fill="#014D47"/>
<rect x="320.297" y="45.7998" width="5.40028" height="5.40028" fill="#014D47"/>
<rect x="239.297" y="45.7998" width="5.40028" height="5.40028" fill="#014D47"/>
<rect x="293.297" y="45.7998" width="5.40028" height="5.40028" fill="#014D47"/>
<rect x="266.297" y="46.7002" width="5.40028" height="3.60019" fill="#014D47"/>
<rect x="271.695" y="46.7002" width="5.40028" height="3.60019" fill="#014D47"/>
<rect x="260.895" y="53" width="5.40028" height="3.60019" fill="#014D47"/>
<rect x="277.098" y="40.3994" width="5.40028" height="3.60019" fill="#014D47"/>
<rect x="205.547" y="51.2549" width="5.40028" height="5.40028" fill="#014D47"/>
<rect x="325.695" y="45.7998" width="5.40028" height="5.40028" fill="#014D47"/>
<rect x="244.695" y="45.7998" width="5.40028" height="5.40028" fill="#014D47"/>
<rect x="298.695" y="45.7998" width="5.40028" height="5.40028" fill="#014D47"/>
<rect x="210.945" y="45.7998" width="5.40028" height="5.40028" fill="#014D47"/>
<rect x="331.094" y="45.7998" width="5.40028" height="5.40028" fill="#014D47"/>
<rect x="210.945" y="51.2002" width="5.40028" height="5.40028" fill="#014D47"/>
<rect x="331.094" y="51.2002" width="5.40028" height="5.40028" fill="#014D47"/>
<path d="M210.945 56.5996H216.346V61.9999H210.945V56.5996Z" fill="#014D47"/>
<rect x="331.094" y="56.5996" width="5.40028" height="5.40028" fill="#014D47"/>
<rect x="222.645" y="56.5996" width="5.40028" height="5.40028" fill="#014D47"/>
<rect x="233.898" y="56.5996" width="5.40028" height="5.40028" fill="#014D47"/>
<rect x="287.895" y="56.5996" width="5.40028" height="5.40028" fill="#014D47"/>
<rect x="266.297" y="56.5996" width="5.40028" height="5.40028" fill="#014D47"/>
<rect x="271.695" y="56.5996" width="5.40028" height="5.40028" fill="#014D47"/>
<rect x="222.645" y="51.2002" width="5.40028" height="5.40028" fill="#014D47"/>
<rect x="233.898" y="51.2002" width="5.40028" height="5.40028" fill="#014D47"/>
<rect x="287.895" y="51.2002" width="5.40028" height="5.40028" fill="#014D47"/>
<rect x="222.645" y="45.7998" width="5.40028" height="5.40028" fill="#014D47"/>
<rect x="233.898" y="45.7998" width="5.40028" height="5.40028" fill="#014D47"/>
<rect x="287.895" y="45.7998" width="5.40028" height="5.40028" fill="#014D47"/>
<rect x="222.645" y="40.3994" width="5.40028" height="5.40028" fill="#014D47"/>
<rect x="233.898" y="40.3994" width="5.40028" height="5.40028" fill="#014D47"/>
<rect x="287.895" y="40.3994" width="5.40028" height="5.40028" fill="#014D47"/>
<rect x="260.895" y="40.3994" width="5.40028" height="5.40028" fill="#014D47"/>
<rect x="222.645" y="35" width="5.40028" height="5.40028" fill="#014D47"/>
<rect x="233.898" y="35" width="5.40028" height="5.40028" fill="#014D47"/>
<rect x="287.895" y="35" width="5.40028" height="5.40028" fill="#014D47"/>
<rect x="239.297" y="35" width="5.40028" height="5.40028" fill="#014D47"/>
<rect x="293.297" y="35" width="5.40028" height="5.40028" fill="#014D47"/>
<rect x="266.297" y="35" width="5.40028" height="5.40028" fill="#014D47"/>
<rect x="244.695" y="35" width="5.40028" height="5.40028" fill="#014D47"/>
<rect x="298.695" y="35" width="5.40028" height="5.40028" fill="#014D47"/>
<rect x="271.695" y="35" width="5.40028" height="5.40028" fill="#014D47"/>
<rect x="250.098" y="40.3994" width="5.40028" height="5.40028" fill="#014D47"/>
<rect x="304.094" y="40.3994" width="5.40028" height="5.40028" fill="#014D47"/>
<rect x="250.098" y="56.5996" width="5.40028" height="5.40028" fill="#014D47"/>
<path d="M194.746 40.3994H200.146V45.7997H194.746V40.3994Z" fill="#014D47"/>
<rect x="314.895" y="40.3994" width="5.40028" height="5.40028" fill="#014D47"/>
<rect x="341.895" y="40.3994" width="5.40028" height="5.40028" fill="#014D47"/>
<rect x="368.895" y="40.3994" width="5.40028" height="5.40028" fill="#014D47"/>
<rect x="371.594" y="37.7002" width="2.70014" height="2.70014" fill="#014D47"/>
<rect x="371.594" y="56.5996" width="2.70014" height="2.70014" fill="#014D47"/>
<rect x="374.297" y="56.5996" width="5.40028" height="5.40028" fill="#014D47"/>
<rect x="374.297" y="35" width="5.40028" height="5.40028" fill="#014D47"/>
<rect x="379.695" y="56.5996" width="5.40028" height="5.40028" fill="#014D47"/>
<rect x="379.695" y="35" width="5.40028" height="5.40028" fill="#014D47"/>
<rect x="385.094" y="56.5996" width="5.40028" height="5.40028" fill="#014D47"/>
<rect x="385.094" y="35" width="5.40028" height="5.40028" fill="#014D47"/>
<path d="M197.445 37.7002H200.145V40.4003H197.445V37.7002Z" fill="#014D47"/>
<rect x="317.598" y="37.7002" width="2.70014" height="2.70014" fill="#014D47"/>
<rect x="344.594" y="37.7002" width="2.70014" height="2.70014" fill="#014D47"/>
<rect x="344.594" y="56.5996" width="2.70014" height="2.70014" fill="#014D47"/>
<path d="M210.945 37.7002H213.645V40.4003H210.945V37.7002Z" fill="#014D47"/>
<rect x="331.094" y="37.7002" width="2.70014" height="2.70014" fill="#014D47"/>
<rect x="358.098" y="37.7002" width="2.70014" height="2.70014" fill="#014D47"/>
<rect x="358.098" y="56.5996" width="2.70014" height="2.70014" fill="#014D47"/>
<rect x="250.098" y="37.7002" width="2.70014" height="2.70014" fill="#014D47"/>
<rect x="304.094" y="37.7002" width="2.70014" height="2.70014" fill="#014D47"/>
<rect x="277.098" y="37.7002" width="2.70014" height="2.70014" fill="#014D47"/>
<rect x="263.598" y="37.7002" width="2.70014" height="2.70014" fill="#014D47"/>
<rect x="263.598" y="45.7998" width="2.70014" height="2.70014" fill="#014D47"/>
<rect x="277.098" y="48.5" width="2.70014" height="2.70014" fill="#014D47"/>
<rect x="263.598" y="56.5996" width="2.70014" height="2.70014" fill="#014D47"/>
<rect x="250.098" y="45.7998" width="2.70014" height="2.70014" fill="#014D47"/>
<rect x="304.094" y="45.7998" width="2.70014" height="2.70014" fill="#014D47"/>
<rect x="277.098" y="56.5996" width="2.70014" height="2.70014" fill="#014D47"/>
<rect x="250.098" y="51.2002" width="5.40028" height="5.40028" fill="#014D47"/>
<rect x="277.098" y="51.2002" width="5.40028" height="5.40028" fill="#014D47"/>
<path d="M210.945 40.3994H216.346V45.7997H210.945V40.3994Z" fill="#014D47"/>
<rect x="331.094" y="40.3994" width="5.40028" height="5.40028" fill="#014D47"/>
<rect x="358.098" y="40.3994" width="5.40028" height="5.40028" fill="#014D47"/>
<rect x="358.098" y="51.2002" width="5.40028" height="5.40028" fill="#014D47"/>
<path d="M458.496 56.5996H463.896V61.9999H458.496V56.5996Z" fill="#014D47"/>
<rect x="578.645" y="56.5996" width="5.40028" height="5.40028" fill="#014D47"/>
<path d="M463.898 35H469.299V40.4003H463.898V35Z" fill="#014D47"/>
<rect x="584.047" y="35" width="5.40028" height="5.40028" fill="#014D47"/>
<rect x="611.043" y="35" width="5.40028" height="5.40028" fill="#014D47"/>
<rect x="611.043" y="56.5996" width="5.40028" height="5.40028" fill="#014D47"/>
<path d="M469.297 35H474.697V40.4003H469.297V35Z" fill="#014D47"/>
<rect x="589.445" y="35" width="5.40028" height="5.40028" fill="#014D47"/>
<rect x="616.445" y="35" width="5.40028" height="5.40028" fill="#014D47"/>
<rect x="616.445" y="56.5996" width="5.40028" height="5.40028" fill="#014D47"/>
<rect x="458.496" y="51.2002" width="5.40028" height="5.40028" fill="#014D47"/>
<rect x="578.645" y="51.2002" width="5.40028" height="5.40028" fill="#014D47"/>
<rect x="605.645" y="51.2002" width="5.40028" height="5.40028" fill="#014D47"/>
<rect x="632.645" y="51.2002" width="5.40028" height="5.40028" fill="#014D47"/>
<rect x="458.496" y="45.7998" width="5.40028" height="5.40028" fill="#014D47"/>
<rect x="578.645" y="45.7998" width="5.40028" height="5.40028" fill="#014D47"/>
<rect x="605.645" y="45.7998" width="5.40028" height="5.40028" fill="#014D47"/>
<rect x="632.645" y="45.7998" width="5.40028" height="5.40028" fill="#014D47"/>
<rect x="638.047" y="45.7998" width="5.40028" height="5.40028" fill="#014D47"/>
<rect x="643.445" y="45.7998" width="5.40028" height="5.40028" fill="#014D47"/>
<rect x="463.898" y="51.2549" width="5.40028" height="5.40028" fill="#014D47"/>
<rect x="584.047" y="45.7998" width="5.40028" height="5.40028" fill="#014D47"/>
<rect x="503.047" y="45.7998" width="5.40028" height="5.40028" fill="#014D47"/>
<rect x="557.047" y="45.7998" width="5.40028" height="5.40028" fill="#014D47"/>
<rect x="530.047" y="46.7002" width="5.40028" height="3.60019" fill="#014D47"/>
<rect x="535.445" y="46.7002" width="5.40028" height="3.60019" fill="#014D47"/>
<rect x="524.645" y="53" width="5.40028" height="3.60019" fill="#014D47"/>
<rect x="540.848" y="40.3994" width="5.40028" height="3.60019" fill="#014D47"/>
<rect x="469.297" y="51.2549" width="5.40028" height="5.40028" fill="#014D47"/>
<rect x="589.445" y="45.7998" width="5.40028" height="5.40028" fill="#014D47"/>
<rect x="508.445" y="45.7998" width="5.40028" height="5.40028" fill="#014D47"/>
<rect x="562.445" y="45.7998" width="5.40028" height="5.40028" fill="#014D47"/>
<rect x="474.695" y="45.7998" width="5.40028" height="5.40028" fill="#014D47"/>
<rect x="594.844" y="45.7998" width="5.40028" height="5.40028" fill="#014D47"/>
<rect x="474.695" y="51.2002" width="5.40028" height="5.40028" fill="#014D47"/>
<rect x="594.844" y="51.2002" width="5.40028" height="5.40028" fill="#014D47"/>
<path d="M474.695 56.5996H480.096V61.9999H474.695V56.5996Z" fill="#014D47"/>
<rect x="594.844" y="56.5996" width="5.40028" height="5.40028" fill="#014D47"/>
<rect x="486.395" y="56.5996" width="5.40028" height="5.40028" fill="#014D47"/>
<rect x="497.648" y="56.5996" width="5.40028" height="5.40028" fill="#014D47"/>
<rect x="551.645" y="56.5996" width="5.40028" height="5.40028" fill="#014D47"/>
<rect x="530.047" y="56.5996" width="5.40028" height="5.40028" fill="#014D47"/>
<rect x="535.445" y="56.5996" width="5.40028" height="5.40028" fill="#014D47"/>
<rect x="486.395" y="51.2002" width="5.40028" height="5.40028" fill="#014D47"/>
<rect x="497.648" y="51.2002" width="5.40028" height="5.40028" fill="#014D47"/>
<rect x="551.645" y="51.2002" width="5.40028" height="5.40028" fill="#014D47"/>
<rect x="486.395" y="45.7998" width="5.40028" height="5.40028" fill="#014D47"/>
<rect x="497.648" y="45.7998" width="5.40028" height="5.40028" fill="#014D47"/>
<rect x="551.645" y="45.7998" width="5.40028" height="5.40028" fill="#014D47"/>
<rect x="486.395" y="40.3994" width="5.40028" height="5.40028" fill="#014D47"/>
<rect x="497.648" y="40.3994" width="5.40028" height="5.40028" fill="#014D47"/>
<rect x="551.645" y="40.3994" width="5.40028" height="5.40028" fill="#014D47"/>
<rect x="524.645" y="40.3994" width="5.40028" height="5.40028" fill="#014D47"/>
<rect x="486.395" y="35" width="5.40028" height="5.40028" fill="#014D47"/>
<rect x="497.648" y="35" width="5.40028" height="5.40028" fill="#014D47"/>
<rect x="551.645" y="35" width="5.40028" height="5.40028" fill="#014D47"/>
<rect x="503.047" y="35" width="5.40028" height="5.40028" fill="#014D47"/>
<rect x="557.047" y="35" width="5.40028" height="5.40028" fill="#014D47"/>
<rect x="530.047" y="35" width="5.40028" height="5.40028" fill="#014D47"/>
<rect x="508.445" y="35" width="5.40028" height="5.40028" fill="#014D47"/>
<rect x="562.445" y="35" width="5.40028" height="5.40028" fill="#014D47"/>
<rect x="535.445" y="35" width="5.40028" height="5.40028" fill="#014D47"/>
<rect x="513.848" y="40.3994" width="5.40028" height="5.40028" fill="#014D47"/>
<rect x="567.844" y="40.3994" width="5.40028" height="5.40028" fill="#014D47"/>
<rect x="513.848" y="56.5996" width="5.40028" height="5.40028" fill="#014D47"/>
<path d="M458.496 40.3994H463.896V45.7997H458.496V40.3994Z" fill="#014D47"/>
<rect x="578.645" y="40.3994" width="5.40028" height="5.40028" fill="#014D47"/>
<rect x="605.645" y="40.3994" width="5.40028" height="5.40028" fill="#014D47"/>
<rect x="632.645" y="40.3994" width="5.40028" height="5.40028" fill="#014D47"/>
<rect x="635.344" y="37.7002" width="2.70014" height="2.70014" fill="#014D47"/>
<rect x="635.344" y="56.5996" width="2.70014" height="2.70014" fill="#014D47"/>
<rect x="638.047" y="56.5996" width="5.40028" height="5.40028" fill="#014D47"/>
<rect x="638.047" y="35" width="5.40028" height="5.40028" fill="#014D47"/>
<rect x="643.445" y="56.5996" width="5.40028" height="5.40028" fill="#014D47"/>
<rect x="643.445" y="35" width="5.40028" height="5.40028" fill="#014D47"/>
<rect x="648.844" y="56.5996" width="5.40028" height="5.40028" fill="#014D47"/>
<rect x="648.844" y="35" width="5.40028" height="5.40028" fill="#014D47"/>
<path d="M461.195 37.7002H463.895V40.4003H461.195V37.7002Z" fill="#014D47"/>
<rect x="581.348" y="37.7002" width="2.70014" height="2.70014" fill="#014D47"/>
<rect x="608.344" y="37.7002" width="2.70014" height="2.70014" fill="#014D47"/>
<rect x="608.344" y="56.5996" width="2.70014" height="2.70014" fill="#014D47"/>
<path d="M474.695 37.7002H477.395V40.4003H474.695V37.7002Z" fill="#014D47"/>
<rect x="594.844" y="37.7002" width="2.70014" height="2.70014" fill="#014D47"/>
<rect x="621.848" y="37.7002" width="2.70014" height="2.70014" fill="#014D47"/>
<rect x="621.848" y="56.5996" width="2.70014" height="2.70014" fill="#014D47"/>
<rect x="513.848" y="37.7002" width="2.70014" height="2.70014" fill="#014D47"/>
<rect x="567.844" y="37.7002" width="2.70014" height="2.70014" fill="#014D47"/>
<rect x="540.848" y="37.7002" width="2.70014" height="2.70014" fill="#014D47"/>
<rect x="527.348" y="37.7002" width="2.70014" height="2.70014" fill="#014D47"/>
<rect x="527.348" y="45.7998" width="2.70014" height="2.70014" fill="#014D47"/>
<rect x="540.848" y="48.5" width="2.70014" height="2.70014" fill="#014D47"/>
<rect x="527.348" y="56.5996" width="2.70014" height="2.70014" fill="#014D47"/>
<rect x="513.848" y="45.7998" width="2.70014" height="2.70014" fill="#014D47"/>
<rect x="567.844" y="45.7998" width="2.70014" height="2.70014" fill="#014D47"/>
<rect x="540.848" y="56.5996" width="2.70014" height="2.70014" fill="#014D47"/>
<rect x="513.848" y="51.2002" width="5.40028" height="5.40028" fill="#014D47"/>
<rect x="540.848" y="51.2002" width="5.40028" height="5.40028" fill="#014D47"/>
<path d="M474.695 40.3994H480.096V45.7997H474.695V40.3994Z" fill="#014D47"/>
<rect x="594.844" y="40.3994" width="5.40028" height="5.40028" fill="#014D47"/>
<rect x="621.848" y="40.3994" width="5.40028" height="5.40028" fill="#014D47"/>
<rect x="621.848" y="51.2002" width="5.40028" height="5.40028" fill="#014D47"/>
<path d="M722.242 56.5996H727.642V61.9999H722.242V56.5996Z" fill="#014D47"/>
<rect x="842.391" y="56.5996" width="5.40028" height="5.40028" fill="#014D47"/>
<path d="M727.645 35H733.045V40.4003H727.645V35Z" fill="#014D47"/>
<rect x="847.793" y="35" width="5.40028" height="5.40028" fill="#014D47"/>
<rect x="874.789" y="35" width="5.40028" height="5.40028" fill="#014D47"/>
<rect x="874.789" y="56.5996" width="5.40028" height="5.40028" fill="#014D47"/>
<path d="M733.043 35H738.443V40.4003H733.043V35Z" fill="#014D47"/>
<rect x="853.191" y="35" width="5.40028" height="5.40028" fill="#014D47"/>
<rect x="880.191" y="35" width="5.40028" height="5.40028" fill="#014D47"/>
<rect x="880.191" y="56.5996" width="5.40028" height="5.40028" fill="#014D47"/>
<rect x="722.242" y="51.2002" width="5.40028" height="5.40028" fill="#014D47"/>
<rect x="842.391" y="51.2002" width="5.40028" height="5.40028" fill="#014D47"/>
<rect x="869.391" y="51.2002" width="5.40028" height="5.40028" fill="#014D47"/>
<rect x="896.391" y="51.2002" width="5.40028" height="5.40028" fill="#014D47"/>
<rect x="722.242" y="45.7998" width="5.40028" height="5.40028" fill="#014D47"/>
<rect x="842.391" y="45.7998" width="5.40028" height="5.40028" fill="#014D47"/>
<rect x="869.391" y="45.7998" width="5.40028" height="5.40028" fill="#014D47"/>
<rect x="896.391" y="45.7998" width="5.40028" height="5.40028" fill="#014D47"/>
<rect x="901.793" y="45.7998" width="5.40028" height="5.40028" fill="#014D47"/>
<rect x="907.191" y="45.7998" width="5.40028" height="5.40028" fill="#014D47"/>
<rect x="727.645" y="51.2549" width="5.40028" height="5.40028" fill="#014D47"/>
<rect x="847.793" y="45.7998" width="5.40028" height="5.40028" fill="#014D47"/>
<rect x="766.793" y="45.7998" width="5.40028" height="5.40028" fill="#014D47"/>
<rect x="820.793" y="45.7998" width="5.40028" height="5.40028" fill="#014D47"/>
<rect x="793.793" y="46.7002" width="5.40028" height="3.60019" fill="#014D47"/>
<rect x="799.191" y="46.7002" width="5.40028" height="3.60019" fill="#014D47"/>
<rect x="788.391" y="53" width="5.40028" height="3.60019" fill="#014D47"/>
<rect x="804.594" y="40.3994" width="5.40028" height="3.60019" fill="#014D47"/>
<rect x="733.043" y="51.2549" width="5.40028" height="5.40028" fill="#014D47"/>
<rect x="853.191" y="45.7998" width="5.40028" height="5.40028" fill="#014D47"/>
<rect x="772.191" y="45.7998" width="5.40028" height="5.40028" fill="#014D47"/>
<rect x="826.191" y="45.7998" width="5.40028" height="5.40028" fill="#014D47"/>
<rect x="738.441" y="45.7998" width="5.40028" height="5.40028" fill="#014D47"/>
<rect x="858.59" y="45.7998" width="5.40028" height="5.40028" fill="#014D47"/>
<rect x="738.441" y="51.2002" width="5.40028" height="5.40028" fill="#014D47"/>
<rect x="858.59" y="51.2002" width="5.40028" height="5.40028" fill="#014D47"/>
<path d="M738.441 56.5996H743.842V61.9999H738.441V56.5996Z" fill="#014D47"/>
<rect x="858.59" y="56.5996" width="5.40028" height="5.40028" fill="#014D47"/>
<rect x="750.141" y="56.5996" width="5.40028" height="5.40028" fill="#014D47"/>
<rect x="761.395" y="56.5996" width="5.40028" height="5.40028" fill="#014D47"/>
<rect x="815.391" y="56.5996" width="5.40028" height="5.40028" fill="#014D47"/>
<rect x="793.793" y="56.5996" width="5.40028" height="5.40028" fill="#014D47"/>
<rect x="799.191" y="56.5996" width="5.40028" height="5.40028" fill="#014D47"/>
<rect x="750.141" y="51.2002" width="5.40028" height="5.40028" fill="#014D47"/>
<rect x="761.395" y="51.2002" width="5.40028" height="5.40028" fill="#014D47"/>
<rect x="815.391" y="51.2002" width="5.40028" height="5.40028" fill="#014D47"/>
<rect x="750.141" y="45.7998" width="5.40028" height="5.40028" fill="#014D47"/>
<rect x="761.395" y="45.7998" width="5.40028" height="5.40028" fill="#014D47"/>
<rect x="815.391" y="45.7998" width="5.40028" height="5.40028" fill="#014D47"/>
<rect x="750.141" y="40.3994" width="5.40028" height="5.40028" fill="#014D47"/>
<rect x="761.395" y="40.3994" width="5.40028" height="5.40028" fill="#014D47"/>
<rect x="815.391" y="40.3994" width="5.40028" height="5.40028" fill="#014D47"/>
<rect x="788.391" y="40.3994" width="5.40028" height="5.40028" fill="#014D47"/>
<rect x="750.141" y="35" width="5.40028" height="5.40028" fill="#014D47"/>
<rect x="761.395" y="35" width="5.40028" height="5.40028" fill="#014D47"/>
<rect x="815.391" y="35" width="5.40028" height="5.40028" fill="#014D47"/>
<rect x="766.793" y="35" width="5.40028" height="5.40028" fill="#014D47"/>
<rect x="820.793" y="35" width="5.40028" height="5.40028" fill="#014D47"/>
<rect x="793.793" y="35" width="5.40028" height="5.40028" fill="#014D47"/>
<rect x="772.191" y="35" width="5.40028" height="5.40028" fill="#014D47"/>
<rect x="826.191" y="35" width="5.40028" height="5.40028" fill="#014D47"/>
<rect x="799.191" y="35" width="5.40028" height="5.40028" fill="#014D47"/>
<rect x="777.594" y="40.3994" width="5.40028" height="5.40028" fill="#014D47"/>
<rect x="831.59" y="40.3994" width="5.40028" height="5.40028" fill="#014D47"/>
<rect x="777.594" y="56.5996" width="5.40028" height="5.40028" fill="#014D47"/>
<path d="M722.242 40.3994H727.642V45.7997H722.242V40.3994Z" fill="#014D47"/>
<rect x="842.391" y="40.3994" width="5.40028" height="5.40028" fill="#014D47"/>
<rect x="869.391" y="40.3994" width="5.40028" height="5.40028" fill="#014D47"/>
<rect x="896.391" y="40.3994" width="5.40028" height="5.40028" fill="#014D47"/>
<rect x="899.09" y="37.7002" width="2.70014" height="2.70014" fill="#014D47"/>
<rect x="899.09" y="56.5996" width="2.70014" height="2.70014" fill="#014D47"/>
<rect x="901.793" y="56.5996" width="5.40028" height="5.40028" fill="#014D47"/>
<rect x="901.793" y="35" width="5.40028" height="5.40028" fill="#014D47"/>
<rect x="907.191" y="56.5996" width="5.40028" height="5.40028" fill="#014D47"/>
<rect x="907.191" y="35" width="5.40028" height="5.40028" fill="#014D47"/>
<rect x="912.59" y="56.5996" width="5.40028" height="5.40028" fill="#014D47"/>
<rect x="912.59" y="35" width="5.40028" height="5.40028" fill="#014D47"/>
<path d="M724.941 37.7002H727.642V40.4003H724.941V37.7002Z" fill="#014D47"/>
<rect x="845.094" y="37.7002" width="2.70014" height="2.70014" fill="#014D47"/>
<rect x="872.09" y="37.7002" width="2.70014" height="2.70014" fill="#014D47"/>
<rect x="872.09" y="56.5996" width="2.70014" height="2.70014" fill="#014D47"/>
<path d="M738.441 37.7002H741.142V40.4003H738.441V37.7002Z" fill="#014D47"/>
<rect x="858.59" y="37.7002" width="2.70014" height="2.70014" fill="#014D47"/>
<rect x="885.594" y="37.7002" width="2.70014" height="2.70014" fill="#014D47"/>
<rect x="885.594" y="56.5996" width="2.70014" height="2.70014" fill="#014D47"/>
<rect x="777.594" y="37.7002" width="2.70014" height="2.70014" fill="#014D47"/>
<rect x="831.59" y="37.7002" width="2.70014" height="2.70014" fill="#014D47"/>
<rect x="804.594" y="37.7002" width="2.70014" height="2.70014" fill="#014D47"/>
<rect x="791.094" y="37.7002" width="2.70014" height="2.70014" fill="#014D47"/>
<rect x="791.094" y="45.7998" width="2.70014" height="2.70014" fill="#014D47"/>
<rect x="804.594" y="48.5" width="2.70014" height="2.70014" fill="#014D47"/>
<rect x="791.094" y="56.5996" width="2.70014" height="2.70014" fill="#014D47"/>
<rect x="777.594" y="45.7998" width="2.70014" height="2.70014" fill="#014D47"/>
<rect x="831.59" y="45.7998" width="2.70014" height="2.70014" fill="#014D47"/>
<rect x="804.594" y="56.5996" width="2.70014" height="2.70014" fill="#014D47"/>
<rect x="777.594" y="51.2002" width="5.40028" height="5.40028" fill="#014D47"/>
<rect x="804.594" y="51.2002" width="5.40028" height="5.40028" fill="#014D47"/>
<path d="M738.441 40.3994H743.842V45.7997H738.441V40.3994Z" fill="#014D47"/>
<rect x="858.59" y="40.3994" width="5.40028" height="5.40028" fill="#014D47"/>
<rect x="885.594" y="40.3994" width="5.40028" height="5.40028" fill="#014D47"/>
<rect x="885.594" y="51.2002" width="5.40028" height="5.40028" fill="#014D47"/>
</g>
<defs>
</defs>
</svg>
