<svg width="24" height="24" viewBox="0 0 24 24" fill="none" xmlns="http://www.w3.org/2000/svg">
<mask id="path-1-inside-1_3019_59926" fill="white">
<path d="M20 -5.24537e-07C22.2091 -2.34843e-07 24 1.79086 24 4L24 20C24 22.2091 22.2091 24 20 24L4 24C1.79086 24 -2.91238e-06 22.2091 -2.62268e-06 20L-5.24537e-07 4C-2.34843e-07 1.79086 1.79086 -2.91238e-06 4 -2.62268e-06L20 -5.24537e-07Z"/>
</mask>
<path d="M24 4L23 4L23 20L24 20L25 20L25 4L24 4ZM20 24L20 23L4 23L4 24L4 25L20 25L20 24ZM-2.62268e-06 20L0.999997 20L0.999999 4L-5.24537e-07 4L-1 4L-1 20L-2.62268e-06 20ZM4 -2.62268e-06L4 0.999997L20 0.999999L20 -5.24537e-07L20 -1L4 -1L4 -2.62268e-06ZM-5.24537e-07 4L0.999999 4C1 2.34314 2.34315 0.999997 4 0.999997L4 -2.62268e-06L4 -1C1.23858 -1 -1 1.23857 -1 4L-5.24537e-07 4ZM4 24L4 23C2.34314 23 0.999997 21.6569 0.999997 20L-2.62268e-06 20L-1 20C-1 22.7614 1.23857 25 4 25L4 24ZM24 20L23 20C23 21.6569 21.6569 23 20 23L20 24L20 25C22.7614 25 25 22.7614 25 20L24 20ZM24 4L25 4C25 1.23858 22.7614 -1 20 -1L20 -5.24537e-07L20 0.999999C21.6569 1 23 2.34315 23 4L24 4Z" fill="#161616" mask="url(#path-1-inside-1_3019_59926)"/>
<path fill-rule="evenodd" clip-rule="evenodd" d="M7.64645 9.89547C7.84171 9.70021 8.15829 9.70021 8.35355 9.89547L12 13.5419L15.6464 9.89547C15.8417 9.70021 16.1583 9.70021 16.3536 9.89547C16.5488 10.0907 16.5488 10.4073 16.3536 10.6026L12.3536 14.6026C12.1583 14.7978 11.8417 14.7978 11.6464 14.6026L7.64645 10.6026C7.45118 10.4073 7.45118 10.0907 7.64645 9.89547Z" fill="#161616"/>
</svg>
