<svg width="1114" height="154" viewBox="0 0 1114 154" fill="none" xmlns="http://www.w3.org/2000/svg">
<path d="M0 122.924H30.733V153.657H0V122.924Z" fill="#DD04A8"/>
<rect x="683.773" y="122.924" width="30.733" height="30.733" fill="#DD04A8"/>
<path d="M30.7383 0H61.4713V30.733H30.7383V0Z" fill="#DD04A8"/>
<rect x="714.508" width="30.733" height="30.733" fill="#DD04A8"/>
<rect x="868.152" width="30.733" height="30.733" fill="#DD04A8"/>
<rect x="868.152" y="122.924" width="30.733" height="30.733" fill="#DD04A8"/>
<path d="M61.4746 0H92.2076V30.733H61.4746V0Z" fill="#DD04A8"/>
<rect x="745.223" width="30.733" height="30.733" fill="#DD04A8"/>
<rect x="898.889" width="30.733" height="30.733" fill="#DD04A8"/>
<rect x="898.889" y="122.924" width="30.733" height="30.733" fill="#DD04A8"/>
<rect y="92.1934" width="30.733" height="30.733" fill="#DD04A8"/>
<rect x="683.773" y="92.1934" width="30.733" height="30.733" fill="#DD04A8"/>
<rect x="837.414" y="92.1934" width="30.733" height="30.733" fill="#DD04A8"/>
<rect x="991.078" y="92.1934" width="30.733" height="30.733" fill="#DD04A8"/>
<rect y="61.4619" width="30.733" height="30.733" fill="#DD04A8"/>
<rect x="683.773" y="61.4619" width="30.733" height="30.733" fill="#DD04A8"/>
<rect x="837.414" y="61.4619" width="30.733" height="30.733" fill="#DD04A8"/>
<rect x="991.078" y="61.4619" width="30.733" height="30.733" fill="#DD04A8"/>
<rect x="1021.81" y="61.4619" width="30.733" height="30.733" fill="#DD04A8"/>
<rect x="1052.54" y="61.4619" width="30.733" height="30.733" fill="#DD04A8"/>
<rect x="30.7383" y="92.5068" width="30.733" height="30.733" fill="#DD04A8"/>
<rect x="714.508" y="61.4619" width="30.733" height="30.733" fill="#DD04A8"/>
<rect x="253.539" y="61.4619" width="30.733" height="30.733" fill="#DD04A8"/>
<rect x="560.846" y="61.4619" width="30.733" height="30.733" fill="#DD04A8"/>
<rect x="407.193" y="66.585" width="30.733" height="20.4886" fill="#DD04A8"/>
<rect x="437.92" y="66.585" width="30.733" height="20.4886" fill="#DD04A8"/>
<rect x="376.455" y="102.438" width="30.733" height="20.4886" fill="#DD04A8"/>
<rect x="468.654" y="30.7305" width="30.733" height="20.4886" fill="#DD04A8"/>
<rect x="61.4746" y="92.5068" width="30.733" height="30.733" fill="#DD04A8"/>
<rect x="745.223" y="61.4619" width="30.733" height="30.733" fill="#DD04A8"/>
<rect x="284.27" y="61.4619" width="30.733" height="30.733" fill="#DD04A8"/>
<rect x="591.582" y="61.4619" width="30.733" height="30.733" fill="#DD04A8"/>
<rect x="92.2012" y="61.4619" width="30.733" height="30.733" fill="#DD04A8"/>
<rect x="775.961" y="61.4619" width="30.733" height="30.733" fill="#DD04A8"/>
<rect x="92.2012" y="92.1934" width="30.733" height="30.733" fill="#DD04A8"/>
<rect x="775.961" y="92.1934" width="30.733" height="30.733" fill="#DD04A8"/>
<path d="M92.2012 122.924H122.934V153.657H92.2012V122.924Z" fill="#DD04A8"/>
<rect x="775.961" y="122.924" width="30.733" height="30.733" fill="#DD04A8"/>
<rect x="158.777" y="122.924" width="30.733" height="30.733" fill="#DD04A8"/>
<rect x="222.814" y="122.924" width="30.733" height="30.733" fill="#DD04A8"/>
<rect x="530.119" y="122.924" width="30.733" height="30.733" fill="#DD04A8"/>
<rect x="407.193" y="122.924" width="30.733" height="30.733" fill="#DD04A8"/>
<rect x="437.92" y="122.924" width="30.733" height="30.733" fill="#DD04A8"/>
<rect x="158.777" y="92.1934" width="30.733" height="30.733" fill="#DD04A8"/>
<rect x="222.814" y="92.1934" width="30.733" height="30.733" fill="#DD04A8"/>
<rect x="530.119" y="92.1934" width="30.733" height="30.733" fill="#DD04A8"/>
<rect x="158.777" y="61.4619" width="30.733" height="30.733" fill="#DD04A8"/>
<rect x="222.814" y="61.4619" width="30.733" height="30.733" fill="#DD04A8"/>
<rect x="530.119" y="61.4619" width="30.733" height="30.733" fill="#DD04A8"/>
<rect x="158.777" y="30.7305" width="30.733" height="30.733" fill="#DD04A8"/>
<rect x="222.814" y="30.7305" width="30.733" height="30.733" fill="#DD04A8"/>
<rect x="530.119" y="30.7305" width="30.733" height="30.733" fill="#DD04A8"/>
<rect x="376.455" y="30.7305" width="30.733" height="30.733" fill="#DD04A8"/>
<rect x="158.777" width="30.733" height="30.733" fill="#DD04A8"/>
<rect x="222.814" width="30.733" height="30.733" fill="#DD04A8"/>
<rect x="530.119" width="30.733" height="30.733" fill="#DD04A8"/>
<rect x="253.539" width="30.733" height="30.733" fill="#DD04A8"/>
<rect x="560.846" width="30.733" height="30.733" fill="#DD04A8"/>
<rect x="407.193" width="30.733" height="30.733" fill="#DD04A8"/>
<rect x="284.27" width="30.733" height="30.733" fill="#DD04A8"/>
<rect x="591.582" width="30.733" height="30.733" fill="#DD04A8"/>
<rect x="437.92" width="30.733" height="30.733" fill="#DD04A8"/>
<rect x="315.004" y="30.7305" width="30.733" height="30.733" fill="#DD04A8"/>
<rect x="622.295" y="30.7305" width="30.733" height="30.733" fill="#DD04A8"/>
<rect x="315.004" y="122.924" width="30.733" height="30.733" fill="#DD04A8"/>
<path d="M0 30.7305H30.733V61.4634H0V30.7305Z" fill="#DD04A8"/>
<rect x="683.773" y="30.7305" width="30.733" height="30.733" fill="#DD04A8"/>
<rect x="837.414" y="30.7305" width="30.733" height="30.733" fill="#DD04A8"/>
<rect x="991.078" y="30.7305" width="30.733" height="30.733" fill="#DD04A8"/>
<rect x="1006.45" y="15.3662" width="15.3665" height="15.3665" fill="#DD04A8"/>
<rect x="1006.45" y="122.924" width="15.3665" height="15.3665" fill="#DD04A8"/>
<rect x="1021.81" y="122.924" width="30.733" height="30.733" fill="#DD04A8"/>
<rect x="1021.81" width="30.733" height="30.733" fill="#DD04A8"/>
<rect x="1052.54" y="122.924" width="30.733" height="30.733" fill="#DD04A8"/>
<rect x="1052.54" width="30.733" height="30.733" fill="#DD04A8"/>
<rect x="1083.27" y="122.924" width="30.733" height="30.733" fill="#DD04A8"/>
<rect x="1083.27" width="30.733" height="30.733" fill="#DD04A8"/>
<path d="M15.373 15.3662H30.7395V30.7327H15.373V15.3662Z" fill="#DD04A8"/>
<rect x="699.146" y="15.3662" width="15.3665" height="15.3665" fill="#DD04A8"/>
<rect x="852.789" y="15.3662" width="15.3665" height="15.3665" fill="#DD04A8"/>
<rect x="852.789" y="122.924" width="15.3665" height="15.3665" fill="#DD04A8"/>
<path d="M92.2012 15.3662H107.568V30.7327H92.2012V15.3662Z" fill="#DD04A8"/>
<rect x="775.961" y="15.3662" width="15.3665" height="15.3665" fill="#DD04A8"/>
<rect x="929.627" y="15.3662" width="15.3665" height="15.3665" fill="#DD04A8"/>
<rect x="929.627" y="122.924" width="15.3665" height="15.3665" fill="#DD04A8"/>
<rect x="315.004" y="15.3662" width="15.3665" height="15.3665" fill="#DD04A8"/>
<rect x="622.295" y="15.3662" width="15.3665" height="15.3665" fill="#DD04A8"/>
<rect x="468.654" y="15.3662" width="15.3665" height="15.3665" fill="#DD04A8"/>
<rect x="391.83" y="15.3662" width="15.3665" height="15.3665" fill="#DD04A8"/>
<rect x="391.83" y="61.4619" width="15.3665" height="15.3665" fill="#DD04A8"/>
<rect x="468.654" y="76.8271" width="15.3665" height="15.3665" fill="#DD04A8"/>
<rect x="391.83" y="122.924" width="15.3665" height="15.3665" fill="#DD04A8"/>
<rect x="315.004" y="61.4619" width="15.3665" height="15.3665" fill="#DD04A8"/>
<rect x="622.295" y="61.4619" width="15.3665" height="15.3665" fill="#DD04A8"/>
<rect x="468.654" y="122.924" width="15.3665" height="15.3665" fill="#DD04A8"/>
<rect x="315.004" y="92.1934" width="30.733" height="30.733" fill="#DD04A8"/>
<rect x="468.654" y="92.1934" width="30.733" height="30.733" fill="#DD04A8"/>
<path d="M92.2012 30.7305H122.934V61.4634H92.2012V30.7305Z" fill="#DD04A8"/>
<rect x="775.961" y="30.7305" width="30.733" height="30.733" fill="#DD04A8"/>
<rect x="929.627" y="30.7305" width="30.733" height="30.733" fill="#DD04A8"/>
<rect x="929.627" y="92.1934" width="30.733" height="30.733" fill="#DD04A8"/>
</svg>
