<svg width="1115" height="154" viewBox="0 0 1115 154" fill="none" xmlns="http://www.w3.org/2000/svg">
<path d="M0 123.035H30.7605V153.796H0V123.035Z" fill="#DD04A8"/>
<rect x="684.387" y="123.035" width="30.7605" height="30.7606" fill="#DD04A8"/>
<path d="M30.7656 0H61.5262V30.7606H30.7656V0Z" fill="#DD04A8"/>
<rect x="715.148" width="30.7605" height="30.7606" fill="#DD04A8"/>
<rect x="868.932" width="30.7605" height="30.7606" fill="#DD04A8"/>
<rect x="868.932" y="123.035" width="30.7605" height="30.7606" fill="#DD04A8"/>
<path d="M61.5293 0H92.2898V30.7606H61.5293V0Z" fill="#DD04A8"/>
<rect x="745.891" width="30.7605" height="30.7606" fill="#DD04A8"/>
<rect x="899.695" width="30.7605" height="30.7606" fill="#DD04A8"/>
<rect x="899.695" y="123.035" width="30.7605" height="30.7606" fill="#DD04A8"/>
<rect y="92.2754" width="30.7605" height="30.7606" fill="#DD04A8"/>
<rect x="684.387" y="92.2773" width="30.7605" height="30.7606" fill="#DD04A8"/>
<rect x="838.166" y="92.2754" width="30.7605" height="30.7606" fill="#DD04A8"/>
<rect x="991.967" y="92.2773" width="30.7605" height="30.7606" fill="#DD04A8"/>
<rect y="61.5176" width="30.7605" height="30.7606" fill="#DD04A8"/>
<rect x="684.387" y="61.5176" width="30.7605" height="30.7606" fill="#DD04A8"/>
<rect x="838.166" y="61.5176" width="30.7605" height="30.7606" fill="#DD04A8"/>
<rect x="991.967" y="61.5176" width="30.7605" height="30.7606" fill="#DD04A8"/>
<rect x="1022.73" y="61.5176" width="30.7605" height="30.7606" fill="#DD04A8"/>
<rect x="1053.49" y="61.5176" width="30.7605" height="30.7606" fill="#DD04A8"/>
<rect x="30.7656" y="92.5898" width="30.7605" height="30.7606" fill="#DD04A8"/>
<rect x="715.148" y="61.5176" width="30.7605" height="30.7606" fill="#DD04A8"/>
<rect x="253.766" y="61.5176" width="30.7605" height="30.7606" fill="#DD04A8"/>
<rect x="561.35" y="61.5176" width="30.7605" height="30.7606" fill="#DD04A8"/>
<rect x="407.559" y="66.6445" width="30.7605" height="20.5071" fill="#DD04A8"/>
<rect x="438.312" y="66.6445" width="30.7605" height="20.5071" fill="#DD04A8"/>
<rect x="376.793" y="102.529" width="30.7605" height="20.5071" fill="#DD04A8"/>
<rect x="469.074" y="30.7578" width="30.7605" height="20.5071" fill="#DD04A8"/>
<rect x="61.5293" y="92.5898" width="30.7605" height="30.7606" fill="#DD04A8"/>
<rect x="745.891" y="61.5176" width="30.7605" height="30.7606" fill="#DD04A8"/>
<rect x="284.525" y="61.5176" width="30.7605" height="30.7606" fill="#DD04A8"/>
<rect x="592.113" y="61.5176" width="30.7605" height="30.7606" fill="#DD04A8"/>
<rect x="92.2832" y="61.5176" width="30.7605" height="30.7606" fill="#DD04A8"/>
<rect x="776.656" y="61.5176" width="30.7605" height="30.7606" fill="#DD04A8"/>
<rect x="92.2832" y="92.2773" width="30.7605" height="30.7606" fill="#DD04A8"/>
<rect x="776.656" y="92.2773" width="30.7605" height="30.7606" fill="#DD04A8"/>
<path d="M92.2832 123.035H123.044V153.796H92.2832V123.035Z" fill="#DD04A8"/>
<rect x="776.656" y="123.035" width="30.7605" height="30.7606" fill="#DD04A8"/>
<rect x="158.92" y="123.035" width="30.7605" height="30.7606" fill="#DD04A8"/>
<rect x="223.014" y="123.035" width="30.7605" height="30.7606" fill="#DD04A8"/>
<rect x="530.596" y="123.035" width="30.7605" height="30.7606" fill="#DD04A8"/>
<rect x="407.559" y="123.035" width="30.7605" height="30.7606" fill="#DD04A8"/>
<rect x="438.312" y="123.035" width="30.7605" height="30.7606" fill="#DD04A8"/>
<rect x="158.92" y="92.2754" width="30.7605" height="30.7606" fill="#DD04A8"/>
<rect x="223.014" y="92.2773" width="30.7605" height="30.7606" fill="#DD04A8"/>
<rect x="530.596" y="92.2773" width="30.7605" height="30.7606" fill="#DD04A8"/>
<rect x="158.92" y="61.5176" width="30.7605" height="30.7606" fill="#DD04A8"/>
<rect x="223.014" y="61.5176" width="30.7605" height="30.7606" fill="#DD04A8"/>
<rect x="530.596" y="61.5176" width="30.7605" height="30.7606" fill="#DD04A8"/>
<rect x="158.92" y="30.7578" width="30.7605" height="30.7606" fill="#DD04A8"/>
<rect x="223.014" y="30.7578" width="30.7605" height="30.7606" fill="#DD04A8"/>
<rect x="530.596" y="30.7578" width="30.7605" height="30.7606" fill="#DD04A8"/>
<rect x="376.793" y="30.7578" width="30.7605" height="30.7606" fill="#DD04A8"/>
<rect x="158.92" width="30.7605" height="30.7606" fill="#DD04A8"/>
<rect x="223.014" width="30.7605" height="30.7606" fill="#DD04A8"/>
<rect x="530.596" width="30.7605" height="30.7606" fill="#DD04A8"/>
<rect x="253.766" width="30.7605" height="30.7606" fill="#DD04A8"/>
<rect x="561.35" width="30.7605" height="30.7606" fill="#DD04A8"/>
<rect x="407.559" width="30.7605" height="30.7606" fill="#DD04A8"/>
<rect x="284.525" width="30.7605" height="30.7606" fill="#DD04A8"/>
<rect x="592.113" width="30.7605" height="30.7606" fill="#DD04A8"/>
<rect x="438.312" width="30.7605" height="30.7606" fill="#DD04A8"/>
<rect x="315.287" y="30.7578" width="30.7605" height="30.7606" fill="#DD04A8"/>
<rect x="622.854" y="30.7578" width="30.7605" height="30.7606" fill="#DD04A8"/>
<rect x="315.287" y="123.035" width="30.7605" height="30.7606" fill="#DD04A8"/>
<path d="M0 30.7578H30.7605V61.5184H0V30.7578Z" fill="#DD04A8"/>
<rect x="684.387" y="30.7578" width="30.7605" height="30.7606" fill="#DD04A8"/>
<rect x="838.166" y="30.7578" width="30.7605" height="30.7606" fill="#DD04A8"/>
<rect x="991.967" y="30.7578" width="30.7605" height="30.7606" fill="#DD04A8"/>
<rect x="1007.35" y="15.3809" width="15.3803" height="15.3803" fill="#DD04A8"/>
<rect x="1007.35" y="123.035" width="15.3803" height="15.3803" fill="#DD04A8"/>
<rect x="1022.73" y="123.035" width="30.7605" height="30.7606" fill="#DD04A8"/>
<rect x="1022.73" width="30.7605" height="30.7606" fill="#DD04A8"/>
<rect x="1053.49" y="123.035" width="30.7605" height="30.7606" fill="#DD04A8"/>
<rect x="1053.49" width="30.7605" height="30.7606" fill="#DD04A8"/>
<rect x="1084.24" y="123.035" width="30.7605" height="30.7606" fill="#DD04A8"/>
<rect x="1084.24" width="30.7605" height="30.7606" fill="#DD04A8"/>
<path d="M15.3867 15.3809H30.767V30.7612H15.3867V15.3809Z" fill="#DD04A8"/>
<rect x="699.773" y="15.3809" width="15.3803" height="15.3803" fill="#DD04A8"/>
<rect x="853.555" y="15.3809" width="15.3803" height="15.3803" fill="#DD04A8"/>
<rect x="853.555" y="123.035" width="15.3803" height="15.3803" fill="#DD04A8"/>
<path d="M92.2832 15.3809H107.663V30.7612H92.2832V15.3809Z" fill="#DD04A8"/>
<rect x="776.656" y="15.3809" width="15.3803" height="15.3803" fill="#DD04A8"/>
<rect x="930.461" y="15.3809" width="15.3803" height="15.3803" fill="#DD04A8"/>
<rect x="930.461" y="123.035" width="15.3803" height="15.3803" fill="#DD04A8"/>
<rect x="315.287" y="15.3809" width="15.3803" height="15.3803" fill="#DD04A8"/>
<rect x="622.854" y="15.3809" width="15.3803" height="15.3803" fill="#DD04A8"/>
<rect x="469.074" y="15.3809" width="15.3803" height="15.3803" fill="#DD04A8"/>
<rect x="392.182" y="15.3809" width="15.3803" height="15.3803" fill="#DD04A8"/>
<rect x="392.182" y="61.5176" width="15.3803" height="15.3803" fill="#DD04A8"/>
<rect x="469.074" y="76.8965" width="15.3803" height="15.3803" fill="#DD04A8"/>
<rect x="392.182" y="123.035" width="15.3803" height="15.3803" fill="#DD04A8"/>
<rect x="315.287" y="61.5176" width="15.3803" height="15.3803" fill="#DD04A8"/>
<rect x="622.854" y="61.5176" width="15.3803" height="15.3803" fill="#DD04A8"/>
<rect x="469.074" y="123.035" width="15.3803" height="15.3803" fill="#DD04A8"/>
<rect x="315.287" y="92.2773" width="30.7605" height="30.7606" fill="#DD04A8"/>
<rect x="469.074" y="92.2773" width="30.7605" height="30.7606" fill="#DD04A8"/>
<path d="M92.2832 30.7578H123.044V61.5184H92.2832V30.7578Z" fill="#DD04A8"/>
<rect x="776.656" y="30.7578" width="30.7605" height="30.7606" fill="#DD04A8"/>
<rect x="930.461" y="30.7578" width="30.7605" height="30.7606" fill="#DD04A8"/>
<rect x="930.461" y="92.2773" width="30.7605" height="30.7606" fill="#DD04A8"/>
</svg>
