<svg width="1112" height="154" viewBox="0 0 1112 154" fill="none" xmlns="http://www.w3.org/2000/svg">
<path d="M0 122.703H30.6779V153.381H0V122.703Z" fill="white"/>
<rect x="682.547" y="122.703" width="30.6779" height="30.6775" fill="white"/>
<path d="M30.6836 0H61.3615V30.6775H30.6836V0Z" fill="white"/>
<rect x="713.227" width="30.6779" height="30.6775" fill="white"/>
<rect x="866.594" width="30.6779" height="30.6775" fill="white"/>
<rect x="866.594" y="122.703" width="30.6779" height="30.6775" fill="white"/>
<path d="M61.3633 0H92.0411V30.6775H61.3633V0Z" fill="white"/>
<rect x="743.887" width="30.6779" height="30.6775" fill="white"/>
<rect x="897.277" width="30.6779" height="30.6775" fill="white"/>
<rect x="897.277" y="122.703" width="30.6779" height="30.6775" fill="white"/>
<rect y="92.0254" width="30.6779" height="30.6775" fill="white"/>
<rect x="682.547" y="92.0273" width="30.6779" height="30.6775" fill="white"/>
<rect x="835.91" y="92.0254" width="30.6779" height="30.6775" fill="white"/>
<rect x="989.301" y="92.0273" width="30.6779" height="30.6775" fill="white"/>
<rect y="61.3516" width="30.6779" height="30.6775" fill="white"/>
<rect x="682.547" y="61.3516" width="30.6779" height="30.6775" fill="white"/>
<rect x="835.91" y="61.3516" width="30.6779" height="30.6775" fill="white"/>
<rect x="989.301" y="61.3516" width="30.6779" height="30.6775" fill="white"/>
<rect x="1019.98" y="61.3516" width="30.6779" height="30.6775" fill="white"/>
<rect x="1050.66" y="61.3516" width="30.6779" height="30.6775" fill="white"/>
<rect x="30.6836" y="92.3398" width="30.6779" height="30.6775" fill="white"/>
<rect x="713.227" y="61.3516" width="30.6779" height="30.6775" fill="white"/>
<rect x="253.086" y="61.3516" width="30.6779" height="30.6775" fill="white"/>
<rect x="559.84" y="61.3516" width="30.6779" height="30.6775" fill="white"/>
<rect x="406.461" y="66.4648" width="30.6779" height="20.4517" fill="white"/>
<rect x="437.133" y="66.4648" width="30.6779" height="20.4517" fill="white"/>
<rect x="375.777" y="102.252" width="30.6779" height="20.4517" fill="white"/>
<rect x="467.812" y="30.6758" width="30.6779" height="20.4517" fill="white"/>
<rect x="61.3633" y="92.3398" width="30.6779" height="30.6775" fill="white"/>
<rect x="743.887" y="61.3516" width="30.6779" height="30.6775" fill="white"/>
<rect x="283.762" y="61.3516" width="30.6779" height="30.6775" fill="white"/>
<rect x="590.52" y="61.3516" width="30.6779" height="30.6775" fill="white"/>
<rect x="92.0352" y="61.3516" width="30.6779" height="30.6775" fill="white"/>
<rect x="774.57" y="61.3516" width="30.6779" height="30.6775" fill="white"/>
<rect x="92.0352" y="92.0273" width="30.6779" height="30.6775" fill="white"/>
<rect x="774.57" y="92.0273" width="30.6779" height="30.6775" fill="white"/>
<path d="M92.0352 122.703H122.713V153.381H92.0352V122.703Z" fill="white"/>
<rect x="774.57" y="122.703" width="30.6779" height="30.6775" fill="white"/>
<rect x="158.492" y="122.703" width="30.6779" height="30.6775" fill="white"/>
<rect x="222.414" y="122.703" width="30.6779" height="30.6775" fill="white"/>
<rect x="529.168" y="122.703" width="30.6779" height="30.6775" fill="white"/>
<rect x="406.461" y="122.703" width="30.6779" height="30.6775" fill="white"/>
<rect x="437.133" y="122.703" width="30.6779" height="30.6775" fill="white"/>
<rect x="158.492" y="92.0254" width="30.6779" height="30.6775" fill="white"/>
<rect x="222.414" y="92.0273" width="30.6779" height="30.6775" fill="white"/>
<rect x="529.168" y="92.0273" width="30.6779" height="30.6775" fill="white"/>
<rect x="158.492" y="61.3516" width="30.6779" height="30.6775" fill="white"/>
<rect x="222.414" y="61.3516" width="30.6779" height="30.6775" fill="white"/>
<rect x="529.168" y="61.3516" width="30.6779" height="30.6775" fill="white"/>
<rect x="158.492" y="30.6758" width="30.6779" height="30.6775" fill="white"/>
<rect x="222.414" y="30.6758" width="30.6779" height="30.6775" fill="white"/>
<rect x="529.168" y="30.6758" width="30.6779" height="30.6775" fill="white"/>
<rect x="375.777" y="30.6758" width="30.6779" height="30.6775" fill="white"/>
<rect x="158.492" width="30.6779" height="30.6775" fill="white"/>
<rect x="222.414" width="30.6779" height="30.6775" fill="white"/>
<rect x="529.168" width="30.6779" height="30.6775" fill="white"/>
<rect x="253.086" width="30.6779" height="30.6775" fill="white"/>
<rect x="559.84" width="30.6779" height="30.6775" fill="white"/>
<rect x="406.461" width="30.6779" height="30.6775" fill="white"/>
<rect x="283.762" width="30.6779" height="30.6775" fill="white"/>
<rect x="590.52" width="30.6779" height="30.6775" fill="white"/>
<rect x="437.133" width="30.6779" height="30.6775" fill="white"/>
<rect x="314.438" y="30.6758" width="30.6779" height="30.6775" fill="white"/>
<rect x="621.176" y="30.6758" width="30.6779" height="30.6775" fill="white"/>
<rect x="314.438" y="122.703" width="30.6779" height="30.6775" fill="white"/>
<path d="M0 30.6758H30.6779V61.3533H0V30.6758Z" fill="white"/>
<rect x="682.547" y="30.6758" width="30.6779" height="30.6775" fill="white"/>
<rect x="835.91" y="30.6758" width="30.6779" height="30.6775" fill="white"/>
<rect x="989.301" y="30.6758" width="30.6779" height="30.6775" fill="white"/>
<rect x="1004.64" y="15.3398" width="15.3389" height="15.3388" fill="white"/>
<rect x="1004.64" y="122.703" width="15.3389" height="15.3388" fill="white"/>
<rect x="1019.98" y="122.703" width="30.6779" height="30.6775" fill="white"/>
<rect x="1019.98" width="30.6779" height="30.6775" fill="white"/>
<rect x="1050.66" y="122.703" width="30.6779" height="30.6775" fill="white"/>
<rect x="1050.66" width="30.6779" height="30.6775" fill="white"/>
<rect x="1081.32" y="122.703" width="30.6779" height="30.6775" fill="white"/>
<rect x="1081.32" width="30.6779" height="30.6775" fill="white"/>
<path d="M15.3438 15.3398H30.6827V30.6786H15.3438V15.3398Z" fill="white"/>
<rect x="697.895" y="15.3398" width="15.3389" height="15.3388" fill="white"/>
<rect x="851.262" y="15.3398" width="15.3389" height="15.3388" fill="white"/>
<rect x="851.262" y="122.703" width="15.3389" height="15.3388" fill="white"/>
<path d="M92.0352 15.3398H107.374V30.6786H92.0352V15.3398Z" fill="white"/>
<rect x="774.57" y="15.3398" width="15.3389" height="15.3388" fill="white"/>
<rect x="927.961" y="15.3398" width="15.3389" height="15.3388" fill="white"/>
<rect x="927.961" y="122.703" width="15.3389" height="15.3388" fill="white"/>
<rect x="314.438" y="15.3398" width="15.3389" height="15.3388" fill="white"/>
<rect x="621.176" y="15.3398" width="15.3389" height="15.3388" fill="white"/>
<rect x="467.812" y="15.3398" width="15.3389" height="15.3388" fill="white"/>
<rect x="391.125" y="15.3398" width="15.3389" height="15.3388" fill="white"/>
<rect x="391.125" y="61.3516" width="15.3389" height="15.3388" fill="white"/>
<rect x="467.812" y="76.6895" width="15.3389" height="15.3388" fill="white"/>
<rect x="391.125" y="122.703" width="15.3389" height="15.3388" fill="white"/>
<rect x="314.438" y="61.3516" width="15.3389" height="15.3388" fill="white"/>
<rect x="621.176" y="61.3516" width="15.3389" height="15.3388" fill="white"/>
<rect x="467.812" y="122.703" width="15.3389" height="15.3388" fill="white"/>
<rect x="314.438" y="92.0273" width="30.6779" height="30.6775" fill="white"/>
<rect x="467.812" y="92.0273" width="30.6779" height="30.6775" fill="white"/>
<path d="M92.0352 30.6758H122.713V61.3533H92.0352V30.6758Z" fill="white"/>
<rect x="774.57" y="30.6758" width="30.6779" height="30.6775" fill="white"/>
<rect x="927.961" y="30.6758" width="30.6779" height="30.6775" fill="white"/>
<rect x="927.961" y="92.0273" width="30.6779" height="30.6775" fill="white"/>
</svg>
